<svg id="Layer_1" data-name="Layer 1" xmlns="http://www.w3.org/2000/svg" viewBox="0 0 1280 129.81"><defs><style>.cls-1{isolation:isolate;}.cls-2{fill:#000111;}</style></defs><title>rfWordmarkBlack</title><g id="Layer_1-2" data-name="Layer 1-2"><g class="cls-1"><g class="cls-1"><path class="cls-2" d="M66.81,3a39.9,39.9,0,0,1,15,2.69A34.76,34.76,0,0,1,93.28,13a32,32,0,0,1,7.28,10.85,34.73,34.73,0,0,1,2.52,13.28q0,10.92-4.6,18.91t-15,12.15v.35A20.91,20.91,0,0,1,91.8,72.8a23.5,23.5,0,0,1,5.38,6.77,31.47,31.47,0,0,1,3,8.59,75.1,75.1,0,0,1,1.3,9.37q.17,3,.35,6.94t.6,8.16a54.21,54.21,0,0,0,1.39,7.89,18.22,18.22,0,0,0,2.87,6.34H79.48A48.24,48.24,0,0,1,76.7,112.8q-.51-8.16-1.56-15.62-1.4-9.72-5.9-14.23T54.49,78.44H27.25v48.42H0V3ZM57.09,59q9.38,0,14.06-4.16T75.84,41.3q0-9-4.69-13.1T57.09,24.12H27.25V59Z"/><path class="cls-2" d="M120.78,39.65a62.21,62.21,0,0,1,12-20.74A54.84,54.84,0,0,1,151.93,5a62.65,62.65,0,0,1,25.6-5,62.5,62.5,0,0,1,25.68,5A55,55,0,0,1,222.3,18.91a62,62,0,0,1,12,20.74,77.38,77.38,0,0,1,4.17,25.77,74.73,74.73,0,0,1-4.17,25.25,60.23,60.23,0,0,1-12,20.39,55.06,55.06,0,0,1-19.09,13.63,63.48,63.48,0,0,1-25.68,4.94,63.64,63.64,0,0,1-25.6-4.94,54.86,54.86,0,0,1-19.18-13.63,60.4,60.4,0,0,1-12-20.39,74.73,74.73,0,0,1-4.17-25.25A77.38,77.38,0,0,1,120.78,39.65Zm24.9,41a40.87,40.87,0,0,0,5.82,13.27,29.63,29.63,0,0,0,10.41,9.46q6.42,3.55,15.62,3.56t15.61-3.56a29.83,29.83,0,0,0,10.42-9.46,41.07,41.07,0,0,0,5.81-13.27,63.35,63.35,0,0,0,1.82-15.19,68.09,68.09,0,0,0-1.82-15.79A41.93,41.93,0,0,0,203.56,36a29.7,29.7,0,0,0-10.42-9.55,31.9,31.9,0,0,0-15.61-3.55q-9.21,0-15.62,3.55A29.5,29.5,0,0,0,151.5,36a41.73,41.73,0,0,0-5.82,13.62,68.09,68.09,0,0,0-1.82,15.79A63.35,63.35,0,0,0,145.68,80.61Z"/><path class="cls-2" d="M327.11,125.9a45.61,45.61,0,0,1-17.87,3.73,63.67,63.67,0,0,1-25.6-4.94,54.73,54.73,0,0,1-19.17-13.63,60.25,60.25,0,0,1-12-20.39,75,75,0,0,1-4.16-25.25,77.63,77.63,0,0,1,4.16-25.77,62.06,62.06,0,0,1,12-20.74A54.71,54.71,0,0,1,283.64,5a62.68,62.68,0,0,1,25.6-5,60.18,60.18,0,0,1,18.48,2.86,52.41,52.41,0,0,1,16.14,8.42,45.46,45.46,0,0,1,17.61,32.45h-26Q333,33.32,326.07,28.11a27.26,27.26,0,0,0-16.83-5.2,31.94,31.94,0,0,0-15.62,3.55A29.58,29.58,0,0,0,283.21,36a41.71,41.71,0,0,0-5.81,13.62,67.55,67.55,0,0,0-1.83,15.79,62.86,62.86,0,0,0,1.83,15.19,40.85,40.85,0,0,0,5.81,13.27,29.71,29.71,0,0,0,10.41,9.46q6.42,3.55,15.62,3.56,13.53,0,20.91-6.86t8.59-19.87H311.32V59.87h52.06v67H346l-2.78-14.06Q336,122.18,327.11,125.9Z"/><path class="cls-2" d="M443.9,3l46.34,123.91H462l-9.37-27.6H406.25l-9.72,27.6H369.11L416,3Zm1.56,76L429.85,33.49h-.35L413.36,79Z"/><path class="cls-2" d="M524.77,3l51.71,83.12h.35V3h25.51V126.86H575.1l-51.55-83h-.34v83H497.7V3Z"/></g><g class="cls-1"><path class="cls-2" d="M616.75,3h77.74V9.54h-70.1V59.18h63.16v6.59H624.39v61.09h-7.64Z"/><path class="cls-2" d="M706,3h7.63V126.86H706Z"/><path class="cls-2" d="M735.45,3H745l78.27,113.67h.34V3h7.64V126.86h-9L743.43,12.32h-.35V126.86h-7.63Z"/><path class="cls-2" d="M889.89,3h8.33l48.94,123.91H939L923.39,87.11H864l-15.8,39.75h-8.15ZM921,80.52,894.41,10.41h-.35L866.47,80.52Z"/><path class="cls-2" d="M956,3h9.54l78.27,113.67h.34V3h7.64V126.86h-9L964,12.32h-.35V126.86H956Z"/><path class="cls-2" d="M1069,64.9a79.36,79.36,0,0,1,4-25.42,61,61,0,0,1,11.54-20.65A53.5,53.5,0,0,1,1103.08,5,59.36,59.36,0,0,1,1128,0a56.12,56.12,0,0,1,18.92,2.86A48.33,48.33,0,0,1,1160.35,10a42.12,42.12,0,0,1,8.93,9.28,51.57,51.57,0,0,1,5.3,9.46,46.57,46.57,0,0,1,2.51,7.64c.46,2.14.7,3.32.7,3.55h-7.64a37.16,37.16,0,0,0-5-14,38.58,38.58,0,0,0-9.55-10.49,42.12,42.12,0,0,0-12.75-6.6,48.81,48.81,0,0,0-52.67,15,55.41,55.41,0,0,0-10.06,18.48,71.82,71.82,0,0,0-3.48,22.56,71.73,71.73,0,0,0,3.48,22.56A55.36,55.36,0,0,0,1090.15,106,47.84,47.84,0,0,0,1128,123.21a39,39,0,0,0,16.92-3.73,46.46,46.46,0,0,0,13.8-9.89,49.18,49.18,0,0,0,9.46-14.23,48.25,48.25,0,0,0,4.07-16.75h7.64a60.77,60.77,0,0,1-5.47,20.48,57.3,57.3,0,0,1-11.28,16.23A49.29,49.29,0,0,1,1128,129.81a59.2,59.2,0,0,1-24.9-5A53.35,53.35,0,0,1,1084.51,111,61,61,0,0,1,1073,90.32,79.32,79.32,0,0,1,1069,64.9Z"/><path class="cls-2" d="M1195.83,3h83.3V9.54h-75.66V59.18h71.15v6.59h-71.15v54.49H1280v6.6h-84.17Z"/></g></g></g></svg>