<svg id="Layer_35" enable-background="new 0 0 64 64" height="512" viewBox="0 0 64 64" width="512" xmlns="http://www.w3.org/2000/svg"><path d="m58 12h-18-2-18c-2.21 0-4 1.79-4 4v26h42c2.21 0 4-1.79 4-4v-22c0-2.21-1.79-4-4-4z" fill="#838f9b"/><path d="m29 2c1.1 0 2 .9 2 2 0 .51-.19.98-.51 1.33-.37.41-.9.67-1.49.67-1.1 0-2-.9-2-2s.9-2 2-2z" fill="#fcd770"/><path d="m49 2c1.1 0 2 .9 2 2s-.9 2-2 2c-.59 0-1.12-.26-1.49-.67-.32-.35-.51-.82-.51-1.33 0-1.1.9-2 2-2z" fill="#fcd770"/><circle cx="56" cy="18" fill="#ff826e" r="2"/><path d="m57 26h-2c-.55 0-1 .45-1 1v3 4 3c0 .55.45 1 1 1h2c.55 0 1-.45 1-1v-3-4-3c0-.55-.45-1-1-1z" fill="#fcd770"/><path d="m20.11 16h29.89v22h-24.8l-7.2-2h-1c3.31 0 6-2.69 6-6 0-1.8-.8-3.42-2.05-4.52.65-.54 1.05-.9 1.05-.9l-2.05-4.11 1.51-.82c.49-.25.68-.85.43-1.34l-.9-1.77c-.18-.34-.52-.54-.88-.54z" fill="#69d6f4"/><path d="m46 26v8h-12v-6-2h4z" fill="#ffeaa7"/><path d="m38 20v6h-4v2h-8v-8z" fill="#b4dd7f"/><g fill="#fcd770"><path d="m23 30c0 3.31-2.69 6-6 6-3.09 0-5.63-2.33-5.96-5.33 1.37-.39 3.61-1.1 5.3-1.98 1.66-.88 3.5-2.3 4.61-3.21 1.25 1.1 2.05 2.72 2.05 4.52z"/><path d="m35.79 42c-.29-.74-.92-1.32-1.73-1.54l-8.86-2.46-7.2-2h-1-1.1c-3.97 0-7.33 2.9-7.92 6.82l-1.89 12.68c-.03.16-.05.33-.07.5-.12 1.29.22 2.62 1.03 3.75 1.06 1.47 2.84 2.25 4.65 2.25h.19c2.35 0 4.52-1.17 5.82-3.12l5.67-8.91 4.8 10.27c.5 1.07 1.58 1.76 2.77 1.76 1.68 0 3.05-1.37 3.05-3.05v-.31c0-.42-.09-.84-.26-1.23l-5.56-12.71 4.48 1.21c.23.06.46.09.69.09 1.47 0 2.65-1.19 2.65-2.65v-.34c0-.35-.07-.7-.21-1.01z"/><path d="m4 35c1.1 0 2 1.9 2 3s-.9 2-2 2-2-.9-2-2 .9-3 2-3z"/></g><path d="m7.83 27.08-1.49.81c-.48.25-1.08.06-1.33-.43l-.08-.15-.82-1.62c-.25-.49-.06-1.09.43-1.34l11.46-6.25 3.66-1.99c.14-.07.3-.11.45-.11.36 0 .7.2.88.54l.9 1.77c.25.49.06 1.09-.43 1.34l-1.51.82z" fill="#aab2bd"/><path d="m19.95 20.47 2.05 4.11s-.4.36-1.05.9c-1.11.91-2.95 2.33-4.61 3.21-1.69.88-3.93 1.59-5.3 1.98-.76.21-1.25.33-1.25.33l-1.96-3.92z" fill="#969faa"/><path d="m58 11h-15.37l4.932-4.384c.429.237.914.384 1.438.384 1.654 0 3-1.346 3-3s-1.346-3-3-3-3 1.346-3 3c0 .4.082.78.225 1.129l-6.605 5.871h-1.24l-6.605-5.871c.143-.349.225-.729.225-1.129 0-1.654-1.346-3-3-3s-3 1.346-3 3 1.346 3 3 3c.524 0 1.009-.147 1.438-.384l4.932 4.384h-15.37c-2.757 0-5 2.243-5 5v1.509l-10.916 5.952c-.978.501-1.365 1.705-.865 2.682l.485.951c-.441.53-.704 1.193-.704 1.906v5.285c-1.228.669-2 2.442-2 3.715 0 1.654 1.346 3 3 3s3-1.346 3-3c0-1.273-.772-3.046-2-3.715v-5.285c0-.071.012-.14.026-.208.083.04.166.082.256.111.198.065.404.097.608.097.316 0 .633-.077.934-.231l.576-.314 1.845 3.702.772-.184c.022-.005.112-.027.252-.062.419 1.487 1.308 2.762 2.494 3.663-2.988 1.126-5.277 3.808-5.768 7.1l-1.884 12.64c-.331 1.766.07 3.548 1.13 5.018 1.204 1.671 3.244 2.668 5.457 2.668h.004.186c2.685 0 5.173-1.332 6.669-3.581l4.693-7.377 4.022 8.618c.664 1.421 2.105 2.34 3.674 2.34 2.235 0 4.054-1.819 4.054-4.055v-.306c0-.563-.114-1.11-.34-1.625l-4.729-10.808 2.466.666c.312.085.639.112.957.127 2.01-.001 3.646-1.639 3.646-3.649v-.336c0-.005-.001-.009-.001-.014h21.001c2.757 0 5-2.243 5-5v-22c0-2.757-2.243-5-5-5zm-9-8c.552 0 1 .449 1 1s-.448 1-1 1-1-.449-1-1 .448-1 1-1zm-20 2c-.552 0-1-.449-1-1s.448-1 1-1 1 .449 1 1-.448 1-1 1zm-25 34c-.552 0-1-.449-1-1 0-.82.68-1.957.997-2 .323.043 1.003 1.18 1.003 2 0 .551-.448 1-1 1zm1.902-11.996-.884-1.775 15.072-8.229h.01l.9 1.765zm15.04 8.776c1.844-1.262 3.058-3.382 3.058-5.78 0-1.632-.578-3.194-1.599-4.437.149-.129.247-.216.267-.234l.566-.509-1.958-3.932.64-.349c.978-.501 1.365-1.705.865-2.683l-.436-.856h26.655v20h-23.664zm-11.785-8.284 10.362-5.65 1.24 2.489c-.983.832-3.062 2.51-4.885 3.468-1.8.945-4.309 1.688-5.555 2.026zm7.647 2.077c1.416-.744 2.923-1.844 4.057-2.739.727.888 1.139 2.002 1.139 3.166 0 2.757-2.243 5-5 5-2.271 0-4.203-1.515-4.801-3.631 1.38-.421 3.165-1.04 4.605-1.796zm18.196 13.777c0 .909-.739 1.648-1.648 1.649-.094-.008-.289-.019-.432-.057l-14.613-3.949-.521 1.931 1.834.496-9.405 11.962 1.572 1.236 9.931-12.632 5.738 1.551 5.372 12.278c.114.261.172.539.172.824v.306c0 1.133-.922 2.055-2.055 2.055-.795 0-1.525-.465-1.861-1.186l-6.178-13.237-1.812.846 1.153 2.47-5.367 8.437c-1.098 1.651-2.932 2.645-4.915 2.67h-.264c-.001 0-.001 0-.003 0-1.571 0-3.005-.687-3.834-1.837-.737-1.021-1.017-2.257-.781-3.517l1.89-12.678c.506-3.402 3.483-5.968 6.923-5.968h1.967l15.929 4.424c.711.198 1.208.852 1.208 1.59zm26-5.35c0 1.654-1.346 3-3 3h-21.622c-.474-.712-1.186-1.263-2.051-1.502l-1.791-.498h18.464v-24h-31v.008c-.279.016-.558.087-.823.224l-2.177 1.186v-.418c0-1.654 1.346-3 3-3h38c1.654 0 3 1.346 3 3z"/><path d="m56 15c-1.654 0-3 1.346-3 3s1.346 3 3 3 3-1.346 3-3-1.346-3-3-3zm0 4c-.552 0-1-.449-1-1s.448-1 1-1 1 .449 1 1-.448 1-1 1z"/><path d="m57 25h-2c-1.103 0-2 .897-2 2v10c0 1.103.897 2 2 2h2c1.103 0 2-.897 2-2v-10c0-1.103-.897-2-2-2zm0 2v2h-2v-2zm0 4v2h-2v-2zm-2 6v-2h2.001v2z"/><path d="m39 19h-14v10h8v6h14v-10h-8zm-12 8v-6h10v4h-4v2zm18 6h-10v-6h10z"/></svg>