<svg xmlns="http://www.w3.org/2000/svg" viewBox="0 0 531.07 53.86"><defs><style>.cls-1{fill:#fff;}</style></defs><title>Asset 6</title><g id="Layer_2" data-name="Layer 2"><g id="Layer_1-2" data-name="Layer 1"><path class="cls-1" d="M27.72,1.22A16.66,16.66,0,0,1,34,2.34,14.18,14.18,0,0,1,38.7,5.4a13.26,13.26,0,0,1,3,4.5,14.34,14.34,0,0,1,1.05,5.51,15.5,15.5,0,0,1-1.91,7.85,12.06,12.06,0,0,1-6.23,5v.14a8.71,8.71,0,0,1,3.46,1.76A10,10,0,0,1,40.32,33a12.81,12.81,0,0,1,1.26,3.57,32.31,32.31,0,0,1,.54,3.88c.05.82.1,1.78.14,2.88s.14,2.24.26,3.39A23.19,23.19,0,0,0,43.09,50a7.58,7.58,0,0,0,1.19,2.63H33a19.86,19.86,0,0,1-1.16-5.83c-.14-2.26-.36-4.42-.64-6.48-.39-2.69-1.2-4.66-2.45-5.9s-3.29-1.88-6.12-1.88H11.3V52.63H0V1.22Zm-4,23.26q3.89,0,5.83-1.73c1.3-1.15,1.94-3,1.94-5.61s-.64-4.31-1.94-5.44S26.28,10,23.69,10H11.3V24.48Z"/><path class="cls-1" d="M49.68,16.45a25.64,25.64,0,0,1,5-8.6,22.68,22.68,0,0,1,8-5.76A26,26,0,0,1,73.22,0,25.93,25.93,0,0,1,83.88,2.09,22.75,22.75,0,0,1,91.8,7.85a25.64,25.64,0,0,1,5,8.6A32.17,32.17,0,0,1,98.5,27.14a31.1,31.1,0,0,1-1.73,10.48,25,25,0,0,1-5,8.46,22.86,22.86,0,0,1-7.92,5.65,26.26,26.26,0,0,1-10.66,2.05A26.37,26.37,0,0,1,62.6,51.73a22.79,22.79,0,0,1-8-5.65,25,25,0,0,1-5-8.46A31.1,31.1,0,0,1,48,27.14,32.17,32.17,0,0,1,49.68,16.45ZM60,33.44A17.23,17.23,0,0,0,62.42,39a12.56,12.56,0,0,0,4.32,3.93,13.26,13.26,0,0,0,6.48,1.47,13.21,13.21,0,0,0,6.48-1.47A12.39,12.39,0,0,0,84,39a17,17,0,0,0,2.42-5.51,26.37,26.37,0,0,0,.75-6.3,28.35,28.35,0,0,0-.75-6.55A17.41,17.41,0,0,0,84,14.94a12.1,12.1,0,0,0-4.32-4A13.21,13.21,0,0,0,73.22,9.5,13.26,13.26,0,0,0,66.74,11a12.26,12.26,0,0,0-4.32,4A17.61,17.61,0,0,0,60,20.59a28.35,28.35,0,0,0-.75,6.55A26.37,26.37,0,0,0,60,33.44Z"/><path class="cls-1" d="M134.85,52.24a18.93,18.93,0,0,1-7.41,1.54,26.3,26.3,0,0,1-10.62-2.05,22.74,22.74,0,0,1-8-5.65,25,25,0,0,1-5-8.46,30.85,30.85,0,0,1-1.73-10.48,31.92,31.92,0,0,1,1.73-10.69,25.61,25.61,0,0,1,5-8.6,22.63,22.63,0,0,1,8-5.76A26,26,0,0,1,127.44,0a25.09,25.09,0,0,1,7.67,1.19,21.56,21.56,0,0,1,6.69,3.49,18.83,18.83,0,0,1,7.31,13.46h-10.8a10.81,10.81,0,0,0-3.89-6.48,11.29,11.29,0,0,0-7-2.16A13.21,13.21,0,0,0,121,11a12.1,12.1,0,0,0-4.32,4,17.18,17.18,0,0,0-2.41,5.65,27.82,27.82,0,0,0-.76,6.55,25.87,25.87,0,0,0,.76,6.3A16.8,16.8,0,0,0,116.64,39,12.39,12.39,0,0,0,121,42.88a13.21,13.21,0,0,0,6.48,1.47q5.61,0,8.68-2.84t3.56-8.25H128.3V24.84h21.6V52.63h-7.2l-1.15-5.83A17,17,0,0,1,134.85,52.24Z"/><path class="cls-1" d="M182.88,1.22,202.1,52.63H190.37l-3.89-11.45H167.25l-4,11.45H151.85L171.29,1.22Zm.65,31.54L177.05,13.9h-.15l-6.69,18.86Z"/><path class="cls-1" d="M216,1.22l21.45,34.49h.15V1.22h10.58V52.63h-11.3L215.49,18.22h-.14V52.63H204.77V1.22Z"/><path class="cls-1" d="M255.89,1.22h32.25V4H259.05V24.55h26.21v2.74H259.05V52.63h-3.16Z"/><path class="cls-1" d="M292.89,1.22h3.17V52.63h-3.17Z"/><path class="cls-1" d="M305.13,1.22h4l32.48,47.16h.14V1.22h3.17V52.63h-3.75L308.45,5.11h-.15V52.63h-3.17Z"/><path class="cls-1" d="M369.21,1.22h3.46L393,52.63h-3.38l-6.48-16.49H358.49l-6.56,16.49h-3.38ZM382.1,33.41l-11-29.09h-.14L359.49,33.41Z"/><path class="cls-1" d="M396.64,1.22h4l32.48,47.16h.14V1.22h3.17V52.63h-3.75L400,5.11h-.15V52.63h-3.17Z"/><path class="cls-1" d="M443.52,26.93a33,33,0,0,1,1.65-10.55A25.43,25.43,0,0,1,450,7.81a22.27,22.27,0,0,1,7.7-5.72A24.68,24.68,0,0,1,468,0a23.26,23.26,0,0,1,7.84,1.19,19.84,19.84,0,0,1,5.58,2.95A17.44,17.44,0,0,1,485.13,8a21.48,21.48,0,0,1,2.2,3.93,19.46,19.46,0,0,1,1,3.16c.19.89.29,1.38.29,1.48h-3.17a15.25,15.25,0,0,0-2.09-5.8,15.81,15.81,0,0,0-4-4.35,17.62,17.62,0,0,0-5.29-2.74,21.41,21.41,0,0,0-15.15,1,20.29,20.29,0,0,0-6.7,5.22,22.85,22.85,0,0,0-4.18,7.67,29.88,29.88,0,0,0-1.44,9.36,29.88,29.88,0,0,0,1.44,9.36A23,23,0,0,0,452.3,44,19.85,19.85,0,0,0,468,51.12a16.29,16.29,0,0,0,7-1.55,19.25,19.25,0,0,0,5.72-4.1,20.24,20.24,0,0,0,3.92-5.91,20,20,0,0,0,1.7-6.94h3.16a25.12,25.12,0,0,1-2.26,8.49,24,24,0,0,1-4.68,6.73A20.51,20.51,0,0,1,476,52.27a20.24,20.24,0,0,1-8,1.59,24.68,24.68,0,0,1-10.34-2.09A22.17,22.17,0,0,1,450,46a25.38,25.38,0,0,1-4.79-8.56A33.07,33.07,0,0,1,443.52,26.93Z"/><path class="cls-1" d="M496.15,1.22h34.56V4H499.32V24.55h29.51v2.74H499.32V49.9h31.75v2.73H496.15Z"/></g></g></svg>