<svg xmlns="http://www.w3.org/2000/svg" viewBox="0 0 693.58 102.47"><defs><style>.cls-1{font-size:72px;fill:#231f20;font-family:HelveticaNeue-Bold, Helvetica Neue;font-weight:700;}.cls-2{letter-spacing:-0.02em;}.cls-3{font-family:HelveticaNeue-Thin, Helvetica Neue;font-weight:200;}.cls-4{fill:#fff;}</style></defs><title>Asset 1</title><g id="Layer_2" data-name="Layer 2"><g id="Layer_1-2" data-name="Layer 1"><text class="cls-1" transform="translate(87.58 67.84)"><tspan class="cls-2">ROGAN</tspan><tspan class="cls-3" x="256.32" y="0">FINANCE</tspan></text></g><g id="Layer_2-2" data-name="Layer 2"><path class="cls-4" d="M0,82.68V0H85V85H0v-.87c.2,0,.32.08.22.32s0,.27,0,.32c.32.26.48-.28.79-.18,0,0,.16-.11.16-.17,0-.23,0-.46,0-.74a1,1,0,0,0-.3,0c-.32.14-.44,0-.46-.3a1,1,0,0,1,0-.39C.5,82.7.3,82.65,0,82.68ZM25.72,71.37c.16,0,.45-.06.48-.15.08-.26-.18-.28-.37-.33s-.16-.1-.25-.1a.54.54,0,0,0-.3.1s0,.22,0,.23a.9.9,0,0,0,.29,0l.26-.07-.12.3c0,.49.46.43.68.65l.08-.09ZM5.85,67.14a.8.8,0,0,0-.19.13c-.25.32-.5.63-.73,1s-.52.76-.78,1.14l.1.07a14.13,14.13,0,0,0,1.59-2.31l.62-.88-.11-.06A1.24,1.24,0,0,0,5.85,67.14ZM24.32,72.2a1.33,1.33,0,0,0-.07.38.72.72,0,0,0,.16.28c.08,0,.19-.08.24-.15.17-.27.08-.39-.35-.5l-.95-.55a3.72,3.72,0,0,0-.2.44,1.7,1.7,0,0,0-.09.39s.15.06.16,0a3.62,3.62,0,0,0,.2-.33,1.28,1.28,0,0,1,.07-.16C23.75,72.19,24,72.62,24.32,72.2Zm-2.08,0,.2.5c.23-.36.41-.62.57-.9s0-.36-.28-.38a.77.77,0,0,1-.5.8l.14-.59-.13,0-.38.5-.13-.51-.46.56-.05-.64-.35.43-.1,0,0-.44a.76.76,0,0,0-.1,1.07l.13-.47.1,0,.19.49.42-.35.08.12.17.27a1.79,1.79,0,0,1,.2-.26A.64.64,0,0,1,22.24,72.24Zm1.58.77c.08.18.1.45.4.36a.36.36,0,0,0,.14-.3c-.14-.31-.35-.14-.55,0,.07-.23.06-.41-.2-.49l-.37.49-.42-.36-.34.49-.39-.45-.34.54-.25-.5-.11,0c-.05.15-.19.34-.14.44a2.85,2.85,0,0,0,.46.59l.31-.38.14-.18.27.51.43-.44s.11.06.18.12c.24.25.35.23.49-.08C23.58,73.19,23.72,73.11,23.82,73Zm12,10.06h0c.21.29.42.59.65.88.07.09.24.21.28.19.34-.23.47.11.68.23l.45-.37c-.23-.1-.43-.28-.59-.25-.58.12-.52-.2-.44-.55,0-.19.12-.37.18-.55a1.24,1.24,0,0,0-1.18,0c-.06,0-.19,0-.29-.07.82-.3.82-.3.55-1.29l.29-.13V81.1l-.8.05c.06.16.15.2.19.27a1.87,1.87,0,0,1,.16.35h-.36c-.08,0-.18-.07-.25,0a3.71,3.71,0,0,0-.5.2ZM46.6,76.41H45.38l-.61-1.09-.06.79c-.13,0-.38.08-.42.19s-.24.19-.39.15c-.38-.1-.36-.42-.4-.68l.76-.14v-.14c-.2-.08-.48-.09-.58-.24a1.7,1.7,0,0,1-.11-.68l-.37-.15.41-.13-.28-.24.25-.57.34.52c.42-.38-.16-.48-.16-.65-.23,0-.44-.13-.66-.2a.45.45,0,0,0-.28,0c-.27.11-.53.25-.86.41l.53.32-.67.58.34.24.31.23-.06.09-.48-.25c-.69-.39-.83-.47-1.35-.07l1.38.68-.05.1a5.23,5.23,0,0,1-.57-.12,4.84,4.84,0,0,1-.47-.21l-.06.1c0,.06.07.15.12.17.35.14.6.48,1,.44a4.07,4.07,0,0,1,.78,0,2.15,2.15,0,0,1,.41.16c-.35.36-.65.15-.95.09s-.51.07-.4.46a1.83,1.83,0,0,1,1.74.29l.63-.17,0,.12L44,77l.08.11a5.06,5.06,0,0,1,.44-.26,1.3,1.3,0,0,1,.43-.15c.23,0,.47,0,.7,0a7.83,7.83,0,0,0,.83-.1s.09-.12.14-.19c.25.07.52.34.76.08l0-.18ZM39,82.82c.38,0,.77-.06,1.15,0a1.09,1.09,0,0,1,.46.15,3.33,3.33,0,0,1,.39.24l-.07.51-.31,0v.59c-.21-.11-.4-.19-.57-.3s-.24-.18-.23-.24a.77.77,0,0,1,.26-.28,2.27,2.27,0,0,1,.32-.22l-.1-.18c-.27.15-.65.25-.77.48s-.28.23-.48.15l-1.16-.39c.08.39.49.61.21,1a1.37,1.37,0,0,0,1.2.62L39,84.58l0-.09c.19,0,.45,0,.57.14.42.4.92.29,1.41.3.17,0,.36-.08.54-.07l2.58.06a1.15,1.15,0,0,0,.39-.11l0-.1-.49.06.31-.47.58.29-.18.37c.61-.2,1.14-.56,1.71-.09l.1-.66-.65.08.13-.51-.64.11.16.36-1.11-.06s-.06.08-.1.12c-.21-.12-.26-.25,0-.4a2,2,0,0,0,.26-.24c.18-.19.15-.33-.11-.38s-.44-.07-.68-.11l-.06-.37c-.9.39-1.13.4-1.37,0,.18,0,.42,0,.54-.16a.69.69,0,0,1,1.13,0s.05,0,.05,0l.49-1.53-.72-.38.06-.14c.38,0,.71.61,1.09.12.44.4.44.4.89.18l-.84-.61.3-.35c-.52-.13-.6.28-.79.53-.35-.13-.68-.27-1-.37a.31.31,0,0,0-.25.18c0,.13.05.28,0,.42a1.23,1.23,0,0,1-.08.54.38.38,0,0,0,.25.59,3.42,3.42,0,0,0,.39.05c-.19.31-.36.33-.67.22A4.34,4.34,0,0,0,42.14,82a.13.13,0,0,0-.09.07c-.11.43-.5.36-.73.46l-.39-.82c-.88.34-1,.23-1.07-.63,0,0,0,0,0,0s-.12-.28-.22-.31-.27,0-.41.08l0,.1.49.27a4,4,0,0,0-.65.3c-.37.28-.59.26-.91-.11-.06-.07-.19-.09-.26-.12l-.22.63c.28,0,.56.12.85.15s.53,0,.65-.28c0,0,.13,0,.19-.07s.09.16.07.22-.1.17-.23.36l.64,0a1.2,1.2,0,0,1-.42.27,3.41,3.41,0,0,0-.44.3c0,.07-.16.19-.15.21s.18.22.28.23a1.17,1.17,0,0,0,.41-.14ZM22,78.89h0l.45.4a3.85,3.85,0,0,1,.35.35,7.18,7.18,0,0,0,.48.7A3.94,3.94,0,0,1,24.51,83a7.94,7.94,0,0,0,0,1c0,.32,0,.67.38.88-.1-.55-.2-1.06-.27-1.57a.68.68,0,0,1,0-.45c.26-.48.57-.94.83-1.42s.38-.78.58-1.22l.25-.26a2,2,0,0,0,.29,0c.12,0,.24,0,.36,0a1.1,1.1,0,0,1-.17.4c-.33.32-.33.33,0,.65s.79.79,1.19,1.19l.49.52.09-.08-.17-.37.07-.09c.09.06.26.13.25.17,0,.31.2.35.37.35a.62.62,0,0,1,.59.32c.05.08.21.09.33.12l.35.07-.31.18-.13,0v.12a1.68,1.68,0,0,1,.39.07.9.9,0,0,1,.31.24c0,.06,0,.18.11.23a2.74,2.74,0,0,0,2.1.85,12.52,12.52,0,0,1,1.37,0h1.27a8.74,8.74,0,0,0-.75-.65c-1.53-1-3.08-2-4.62-3a18.09,18.09,0,0,1-1.95-1.39c-.28-.25-.49-.47-.89-.45-.1,0-.22-.09-.32-.15.08-.09.14-.21.24-.26s.21,0,.31,0,.5.27.75,0l-1.44-.61,0-.09,1-.23-.32.42.08.07.47-.35c-.29-.47-.35-.49-.76-.27a1.25,1.25,0,0,1-.39.18.62.62,0,0,1-.72-.23,2,2,0,0,0-.48-.39.22.22,0,0,0-.19.06.21.21,0,0,0,.05.2c.15.08.32.14.51.22l-.05.48-.75-.38c-1.25-.66-2.48-1.35-3.74-2-1-.53-1.92-1.12-2-2.43a.21.21,0,0,0,0-.11c-.37-.4-.14-.76.07-1.13a1.47,1.47,0,0,1,0,.36,6,6,0,0,0,.13,1c.12.37.4.69.5,1.07s.35.38.65.39a.42.42,0,0,0,0-.14L20.84,75A2.79,2.79,0,0,1,20,72.74a.6.6,0,0,0-.4-.71.78.78,0,0,1-.34-1l.68.81.24-.22v1.48c0,.24,0,.51.34.55,0-.08,0-.13,0-.18,0-.57-.44-1.11-.12-1.71,0,0,0-.31-.2-.19a.5.5,0,0,1-.09-.12L19.84,71c.68-.24,1.19.26,1.86.36l.06,0,.46.08L22.06,71c0-.38.21-.5.58-.42a.35.35,0,0,0,.18-.06s0-.06,0-.14l-.3.07-.09-.29c-.66-.18-1.36-.06-1.94-.49l.77-.08-.07-.39-.86.33a.45.45,0,0,1,.16-.39c.26-.13.56-.2.83-.31s.32-.21.51,0l.19-.25h-.81a.61.61,0,0,1,.68-.4c.12-.19.17-.39.28-.42.3-.08.62-.1.93-.15.07,0,.12-.09.19-.13a.67.67,0,0,1,.23-.1c.53-.06,1.06-.1,1.58-.14a.89.89,0,0,1,.28,0c.79.24,1.59.48,2.38.75a3.84,3.84,0,0,1,.74.45L28.47,68l.14,0a3.9,3.9,0,0,0,.42.9,10,10,0,0,0,1.06,1l.19-.35L31,70l-.07.51c.36-.11.66-.29.94,0l-.28.3.4.08.09-.28,1,.47-.1-.37c.26.1.47.19.69.26.5.14,1,.25,1.5.4.25.07.5.27.63-.16a2.1,2.1,0,0,0,1.68.25.41.41,0,0,1,.19,0l.92.16,1.27.18,0-.09-.35-.24c.27,0,.53-.08.81-.1s.53,0,.8,0a.27.27,0,0,0-.13-.19l-.16-.07a1.67,1.67,0,0,1,1.67.41l0,.11-.73-.2a5.62,5.62,0,0,0,1.07.9,1.71,1.71,0,0,0,.79.08,3.27,3.27,0,0,0,.49-.1c.09-.36.49-.13.85-.22l-.48-.19,0-.15h2v-.14H45.06c-.36,0-.43-.11-.35-.5h.23l.34-.32a1,1,0,0,1,.67-.39c.36,0,.72,0,1.09,0V70.3l-1-.26a1,1,0,0,1,.46-.08,1.81,1.81,0,0,0,.61,0c.41-.15.56.06.66.32l1-.29c-.23-.18-.68.13-.72-.41l.86.25c.27.62.39.72.85.68-.13-.14-.36-.27-.38-.44-.1-.64-.82-.36-1.07-.76a1.64,1.64,0,0,1-.22.12,1.27,1.27,0,0,1-1.06,0v-.15L49,69.17c.06.09.11.23.16.23.27,0,.29.19.37.38s.24.3.36.29c.4,0,.84,0,1.13-.4,0-.06.24-.06.34,0a1.46,1.46,0,0,0,1.14,0c.05,0,.15,0,.21,0s0,.14,0,.16c-.23.17-.47.32-.76.51l0,.17c-.49,0-.22-.41-.38-.63L50.86,71l1.16.1h0l.09.54-.57.26,0,.09h.56c-.25.24-.65.45-.7.72s.25.61.4.92c-.49.19-.56.29-.53.77l-.42-.33.65-.6-.1-.15-1.13.59c.05.12.06.23.11.25.36.21.19.45.07.7a6.82,6.82,0,0,0-.25.65l-.18-.09c-.25.2-.45.37-.67.52s-.31.19-.2.44c0,0-.1.18-.16.26-.22.28-.45.55-.67.81l.33-.15c.21-.08.35,0,.3.21a5.22,5.22,0,0,1-.38.73c-.13-.53-.38-.65-.78-.36l.5.37-.68.11c.27.19.72-.18.8.45.18-.36.37-.6.7-.44.15.07.22.3.32.46l-.09.07-.51-.23a3.18,3.18,0,0,1-1.35,1.06v-.3l-.59.28a.83.83,0,0,0,1,.3c.4-.06.59.18.83.38a.42.42,0,0,0,.28.11.48.48,0,0,0,.24-.21,3.69,3.69,0,0,0,.2-.5c.16.3.23.63.39.68s.48-.08.74-.13c0,.57-.4.4-.76.47l.7.63.08-.08L50.38,81l0-.11a5.5,5.5,0,0,1,.69.11,2.71,2.71,0,0,1,0,.43c.25.16.76-.14.91.41l-.75.08.62.47-.56.24a1.05,1.05,0,0,0-1.15.06,5.42,5.42,0,0,1,.72,0,1.12,1.12,0,0,1,.33.19,3,3,0,0,1-.19.3c-.1.13-.25.23-.3.38a5.16,5.16,0,0,0-.14.76l.38.09-.41.34c.27.24.44.24.58,0,.61-1.21,1.16-2.46,1.84-3.64a42.67,42.67,0,0,1,2.45-3.77c.83-1.15,1.77-2.2,2.65-3.31,1-1.29,2.07-2.6,3.09-3.91a1,1,0,0,0,.15-.53,16.36,16.36,0,0,0-.09-2.43c-.1-.62.12-1.25-.19-1.84-.16-.32-.25-.68-.43-1s-.2-.46.22-.59l.35.41-.06.3.13,0c.06-.16.18-.34.15-.48-.06-.29-.33-.28-.58-.26,0-.42.39-.82.17-1.22-.24,0-.51.09-.53.05a1,1,0,0,1-.09-.6,3.17,3.17,0,0,1,.36-.71c-.17,0-.37.16-.47.11a1.8,1.8,0,0,1-.54-.49c-.19-.26-.27-.67-.52-.8s-.29-.49-.5-.78l.43.1.07-.08c-.19-.24-.37-.5-.58-.73a1,1,0,0,1-.21-.94L59.74,59l1,.91.07-.07c-.23-.25-.45-.51-.7-.75-.08-.07-.24,0-.36-.08a1.12,1.12,0,0,0-.1-.38c-.3-.36-.63-.7-.93-1.06-.05-.06-.05-.18-.08-.27l.11-.06,1.5,1.44c-.09-.38-.33-.67-.37-1a1.26,1.26,0,0,0-.57-.91c-.17-.13-.18-.79-.09-.95a1.44,1.44,0,0,0,.26-.75,2,2,0,0,1,.5-1.59A2.28,2.28,0,0,0,60.4,51s0-.07,0-.2l.3.32c.05-.15.09-.27.12-.4L62,45.25a2.31,2.31,0,0,1,.64-1.36c.52-.44.53-1.12.83-1.66,0,0,0-.1,0-.15-.13-.47-.09-.52.43-.56a11.13,11.13,0,0,0,.36-3.28s.11-.07.12-.15a8.63,8.63,0,0,0,.28-1.57,11.47,11.47,0,0,1,.65-3.46l.44.12a4.52,4.52,0,0,1,0-.79,2.05,2.05,0,0,0-.14-1.22c0-.09,0-.27.11-.38A2.43,2.43,0,0,0,66.2,29a3.35,3.35,0,0,1,0-.63,1.93,1.93,0,0,0-.92-1.75c-.2-.13-.35-.17-.53,0l-1.15.88c-.36.27-.51.22-.67-.19-.1-.25-.23-.49-.35-.73L62.27,26l.1,0,.3.52c0-.59-.05-1.1-.08-1.6,0-.29,0-.59-.08-.88-.12-.76-.23-1.52-.38-2.27a3.34,3.34,0,0,0-.31-.63.64.64,0,0,1,0-.09H62c-.14-1-.28-2-.44-2.93a18.88,18.88,0,0,0-.46-2.38,29.09,29.09,0,0,0-2.75-6A8.94,8.94,0,0,0,55.64,6.6c-.73-.48-1.38-1.08-2.12-1.55A18,18,0,0,0,47.69,2.4a6.49,6.49,0,0,1-.76-.19,30,30,0,0,0-5.23-1,15.35,15.35,0,0,0-7.3.85c-.84.3-1.64.71-2.46,1a9.9,9.9,0,0,0-1.47.55c-1,.64-2.16,1.16-3.16,1.89A15,15,0,0,0,24.53,8,8.63,8.63,0,0,1,22.9,9.68a1.19,1.19,0,0,0-.32.44c-.68,1.27-1.39,2.53-2,3.83a10.31,10.31,0,0,0-1.07,4.12c0,1.28-.07,2.56-.07,3.85,0,1.57,0,3.14.07,4.71,0,.57,0,1.15,0,1.72,0,.34-.24.38-.49.21s-.46-.34-.71-.5a1.35,1.35,0,0,0-2.17,1.11,17.66,17.66,0,0,0,.21,3.17c.15.9.55,1.76.79,2.66.6,2.16,1.2,4.33,1.76,6.51a8.35,8.35,0,0,0,1.6,3.24,2.06,2.06,0,0,1,.48,1c.12,1.49.2,3,.23,4.47,0,.83-.05.85-.84,1.07-.25.07-.5.15-.76.21a3.29,3.29,0,0,0-1.8,1c-.45.48-.84,1-1.31,1.51-1.14,1.19-2.31,2.35-3.46,3.54A7.53,7.53,0,0,0,11.72,59a6.56,6.56,0,0,1-1.62,1.78,8.9,8.9,0,0,0-.84.89l.08.08a5.3,5.3,0,0,0,1-.4,3.17,3.17,0,0,0,.61-.65c.16-.18.3-.38.47-.55a1.61,1.61,0,0,1,1.35-.35.35.35,0,0,1,.37.38,2.32,2.32,0,0,1-.12.57c-.12.35-.25.71-.4,1.05a4.27,4.27,0,0,1-.43.82c-.3.4-.63.78-1,1.16a3.64,3.64,0,0,1-.87.88c-.31.16-.51.23-.32.64l-.55-.11.21.37c-.3.42-.58.78-.83,1.16,0,0,0,.17.05.26a.85.85,0,0,0,.22-.09c.12-.13.23-.28.35-.4l.85-.86a1.29,1.29,0,0,1,.16-.09,3.62,3.62,0,0,0,.38-.26A2.34,2.34,0,0,0,11.1,65c.36-.4.72-.82,1.1-1.2s.69-.62,1-.94a3.85,3.85,0,0,1,.3-.27c.09-.08.26-.21.29-.18s.31.08.45,0a3.22,3.22,0,0,1,.55-.44c.56-.27.69-.8.89-1.37l-.55-.07a2.36,2.36,0,0,1,.16-.47c.22-.44.44-.87.69-1.28a.35.35,0,0,1,.31-.1c.32.07.69.07.78.51,0,.1.14.19.23.27A3.67,3.67,0,0,1,18,60a9.78,9.78,0,0,1,.84,1.52A9.62,9.62,0,0,1,19.3,63c.45,1.76.88,3.53,1.29,5.29,0,.17,0,.47-.12.53a.61.61,0,0,0-.37.79s-.05.1-.11.2l-.15-.39-1.36,1.49c-.33-.59-.64-1.13-.94-1.68a1.12,1.12,0,0,0-.16-.22c-.16-.16-.42-.28-.5-.47a.7.7,0,0,0-.87-.47,14.2,14.2,0,0,0-2.31.67c-.55.23-1.32.29-1.39,1.24l-.25-.5-.92.46c-.14.06-.39.11-.4.19-.06.47-.47.38-.75.49a3.61,3.61,0,0,1-.57.12c-.94.17-1.87.36-2.8.52-.42.07-.84.08-1.25.12-.81.08-1.61.21-2.41.22-.22,0-.53-.29-.64-.52s.15-.47.39-.65a3.64,3.64,0,0,0,.91-.84c.78-1.12,1.54-2.26,2.26-3.43.37-.62.64-1.3,1-2a.6.6,0,0,0-.72.33l-.33.66a6.6,6.6,0,0,1-.51,1c-.86,1.15-1.8,2.24-2.62,3.41A6.53,6.53,0,0,1,.28,71.88c-.24.12-.26.38,0,.49a3,3,0,0,0,1.06.35c.88,0,1.76,0,2.64,0a17.91,17.91,0,0,0,2.19-.15c.7-.1,1.39-.32,2.08-.49,0,0,.06,0,.09-.07a1.65,1.65,0,0,1,.46-.3c.66-.15,1.33-.29,2-.39s.7,0,.59.69a1.46,1.46,0,0,0,.49,1.45,5.33,5.33,0,0,0,1.14,1c.48.23.42.35.57-.16l.17,0-.11.73A3.22,3.22,0,0,1,15,76.29a.83.83,0,0,1-.16.09c-.48.19-1,.35-1.43.58-.68.34-1.31.76-2,1.1a6.69,6.69,0,0,1-1.59.61,5.61,5.61,0,0,0-3.9,2.44,3.83,3.83,0,0,1-2.7,1.61c0,.43,0,.4-.45.41a.63.63,0,0,0-.45.31c-.2.48-.35,1-.53,1.49h.75c.33,0,.43-.14.38-.47A.87.87,0,0,1,3,83.84a3.55,3.55,0,0,1,1.79-1.28c.27-.07.57,0,.78-.27,0,0,.08,0,.11,0,.39-.08.77-.15,1.15-.24a.27.27,0,0,0,.19-.11c.16-.3.28-.62.46-.91.29-.47.62-.92.93-1.38l.41.21.3-.35.18,0c-.23.67,0,1,.64,1.11l.26-.12c0,.12.07.21.09.29.16.55.29.63.84.51a.42.42,0,0,1,.27,0,.57.57,0,0,0,.7-.18,1.63,1.63,0,0,1,1.38-.51,5.08,5.08,0,0,1,.8.28c.2.07.55.59.45.75-.25.42-.55.82-.82,1.22a2.37,2.37,0,0,1,.45.07c.55.16,1.09.33,1.64.51a5.52,5.52,0,0,1,2.49,1.17c.65.67,1.38.25,2.11.37-.17-.55-.48,0-.71-.24l.29-.37-.13.1a3.09,3.09,0,0,0-.39-.58c-.5-.43-1-.84-1.53-1.24a2.61,2.61,0,0,0-.56-.32c-.33-.14-.69-.22-.69-.69,0-.06-.08-.12-.12-.19h-.12l-.15,1.36a3.1,3.1,0,0,1-1-1.88l-.54.29a3.74,3.74,0,0,1-.22-.45c0-.09,0-.21,0-.31s0-.33-.06-.36c-.35-.17-.27-.52-.37-.78s0-.3,0-.41c-.19-.33,0-.56.16-.79.53.27.8.13,1-.45a.58.58,0,0,1,.52-.46.9.9,0,0,0,.52-.33,1.68,1.68,0,0,1,1.4-.72,4.48,4.48,0,0,1,2.88,1.54C21.23,78.05,21.62,78.47,22,78.89Zm47.13-5.13c.57.12,1.06.24,1.56.33s.77.12,1.16.18c.59.09,1.19.16,1.77.29a2.93,2.93,0,0,0,1.58,0,.41.41,0,0,0,.27-.22c0-.09-.08-.24-.17-.31l-2.38-1.89a9.1,9.1,0,0,0-1.21-1,10.45,10.45,0,0,0-1.63-.65s-.12,0-.18,0a1.64,1.64,0,0,1-.14,1.47C69.54,72.63,69.35,73.19,69.14,73.76ZM12.32,84.3a7.83,7.83,0,0,1,.35-.75c.05-.08.29-.15.31-.12.3.39.91.41,1.13.91a1.22,1.22,0,0,0,.12.19c.29-.19.25-.34.07-.5a1.52,1.52,0,0,1-.54-.83,2.12,2.12,0,0,0-.37-.6l-.09.06.27.75-1-.29v.09l-.34-.53.55-.12v-.15L11.66,82l.15.64a.83.83,0,0,1-.21.06l-1.09,0c-.48,0-.66.25-.47.66.08.18.15.37.23.56l-.15.08c-.15-.22-.3-.45-.47-.68a1.16,1.16,0,0,0-.2-.18c-.08.09-.21.19-.21.28a2.06,2.06,0,0,0,.12.7,1.12,1.12,0,0,0,1.34.81,1.36,1.36,0,0,1,.14-.43A.93.93,0,0,0,11,83.7c-.08-.33.21-.5.52-.33a1.33,1.33,0,0,1,.39.36C12.07,83.89,12.18,84.09,12.32,84.3ZM27.72,75l.06.1c.1-.07.23-.12.29-.22.17-.3.32-.22.5,0a3.73,3.73,0,0,0,.59.6c.51.34.64.93,1,1.38a.37.37,0,0,1,0,.29c-.13.27,0,.43.18.6.45.38.87.79,1.3,1.18a3.15,3.15,0,0,0,.29.22L32,79a3.06,3.06,0,0,1-.34-.39,2.52,2.52,0,0,1-.17-.41l.16-.07.22.38c.09.19.22.26.4.12.55-.45.55-.45,1.18-.08.06,0,.15,0,.23,0l0-.15A7.3,7.3,0,0,0,32.62,78c-.14,0-.33.14-.5.21s-.16,0-.18,0a.36.36,0,0,1-.05-.21c0-.15.08-.33,0-.45a.87.87,0,0,0-.38-.38.56.56,0,0,0-.44,0c-.13.32-.4.23-.66.28L31.09,76c.34.06.72-.37,1.07.1l0-.17-1-.47-.31.37c-.35-.4-.67-.76-1-1.1-.08-.08-.24-.07-.33-.1v.7L27.64,74l-.21.48.08.06.45-.23.08.08Zm34.2-6.64a.6.6,0,0,0-.48.65,3.48,3.48,0,0,1,0,1c-.13.55-.39,1.07-.52,1.62a14.92,14.92,0,0,0-.25,1.58,3.93,3.93,0,0,0,.5-.48,1.61,1.61,0,0,0,.3-.6c.12-.59.16-1.2.3-1.78a6.77,6.77,0,0,1,.45-1c-.32-.08-.38-.22-.27-.47A1.26,1.26,0,0,0,61.92,68.32ZM66,71.69l0,.14c.82.18.82.18.92.61l-.43-.13-.08.09c.11.1.22.27.35.28a1.81,1.81,0,0,0,.61-.13s.08.13.06.21-.16.13-.24.14a1.2,1.2,0,0,1-1-.31c-.21-.22-.43-.42-.66-.64-.12.39-.12.4.14.57a3.14,3.14,0,0,0,1.45.71c.43,0,.46-.36.58-.59s-.12-.45-.28-.56a3.28,3.28,0,0,0-1-.41A1.47,1.47,0,0,0,66,71.69ZM31,84.76V84.6A6.41,6.41,0,0,0,27,85Zm10.9-3.65.38.6c.32-.17.76-.09.74-.65a3.73,3.73,0,0,0-.46,0c-.61,0-.76-.11-.7-.74l-.71.67.32,0-.21.49.11.08Zm4.77-2.55.08.14.43-.09c.07.24,0,.43-.22.45-.62.06-1.24.1-1.86.14a.75.75,0,0,0,.45.18c.32,0,.65-.07,1-.1a5.16,5.16,0,0,0,.89-.12c.18,0,.32-.24.47-.37l-.06-.08-.36.06,0-.09c-.14-.14-.27-.34-.44-.39S46.79,78.46,46.65,78.56Zm-1.06-1c0-.08.07-.23,0-.25a1,1,0,0,0-1-.24l.25.12-.7.36.56.31-.17.22c.27.1.51.28.71.11a2.94,2.94,0,0,1-.27-.61c0-.07.14-.24.23-.25S45.41,77.46,45.59,77.57Zm-1.34.92v.14a5.38,5.38,0,0,0,2,0c.05,0,.09-.07.18-.13l-.33-.15.17-.18,0-.1-.84.12,0,.35Zm-5.89,4.84L39,82.25l-1.77.1v.08l1.2.36L38,83Zm1.71-1.79h.73l-.18-1-.51.31Zm-2.48,0c-.48-.32-.82-.26-1,0s0,.45,0,.69Zm3.94-4.36.85.22.31-.55C42.21,76.44,41.93,76.87,41.53,77.23ZM23.66,70.76l.23-.2a1.21,1.21,0,0,1,.2-.09.5.5,0,0,1,.08.2.6.6,0,0,1-.07.2,5.72,5.72,0,0,0,.55.22.4.4,0,0,0,.24-.09.22.22,0,0,0,0-.17.42.42,0,0,0-.24-.09,1.92,1.92,0,0,0-.39.05,2.25,2.25,0,0,0,.21-.35c0-.07,0-.22-.05-.23A.73.73,0,0,0,23.66,70.76Zm3,3.06.78.19,0-.13c-.38-.22-.75-.45-1.14-.64-.06,0-.24.07-.29.15s0,.21,0,.32l.3-.07c.07,0,.13-.06.21-.09ZM8.08,63.1,7.87,63l-1,1.95L7,65ZM14,67.47l-.08-.14a3.07,3.07,0,0,0-1.46.91l.08.14Zm11.77,7.14c-.24-.12-.45-.23-.67-.32a.33.33,0,0,0-.27,0,.32.32,0,0,0-.11.27c0,.07.13.13.21.17a3,3,0,0,1,.32.12C25.53,75,25.7,75,25.79,74.61Zm-2.06-1.07c-.14.15-.3.32,0,.5a2.87,2.87,0,0,0,.49.26.34.34,0,0,0,.31-.07.34.34,0,0,0-.05-.31A8.14,8.14,0,0,0,23.73,73.54Zm0,.76a1.25,1.25,0,0,0-.21-.24,2,2,0,0,0-.39-.25.93.93,0,0,0-.33,0c0,.12,0,.28.08.36a1.73,1.73,0,0,0,.47.33.36.36,0,0,0,.25,0C23.64,74.47,23.66,74.38,23.71,74.3Zm-.85.14A6.33,6.33,0,0,0,22.3,74a1.06,1.06,0,0,0-.33-.09c0,.14,0,.32,0,.39a3.74,3.74,0,0,0,.61.49Zm1.11,0-.14.07c0,.13,0,.3.11.37a2,2,0,0,0,.58.3c.07,0,.21,0,.26-.12s0-.2-.07-.24C24.47,74.71,24.22,74.59,24,74.47Zm-.86.18c-.08.07-.18.12-.19.18a.33.33,0,0,0,.1.25,2.58,2.58,0,0,0,.53.32.6.6,0,0,0,.27,0c0-.1,0-.27,0-.31A7.71,7.71,0,0,0,23.11,74.65Zm-1-.07c-.25-.27-.43-.47-.62-.66s-.15,0-.23-.07-.1.23-.07.28a4.37,4.37,0,0,0,.54.6S21.88,74.65,22.07,74.58Zm.67,1.08.18,0c0-.12,0-.31,0-.37-.23-.19-.49-.34-.79-.54C22,75.38,22.59,75.32,22.74,75.66Zm2.45.19c-.12-.1-.16-.17-.22-.2a3.56,3.56,0,0,0-.61-.25c-.08,0-.18,0-.28,0s0,.25.11.29a2.53,2.53,0,0,0,.64.26C24.92,76,25,75.92,25.19,75.85Zm-.68-2.59c0,.2,0,.37.06.47s.24,0,.4.06.05.19.13.22a.34.34,0,0,0,.31-.05.32.32,0,0,0,0-.3C25.15,73.52,24.88,73.42,24.51,73.26Zm-3.24,1.39c-.19-.29-.31-.5-.46-.7a1.3,1.3,0,0,0-.26-.17c0,.12-.14.27-.1.34a3.09,3.09,0,0,0,.48.6S21.11,74.68,21.27,74.65Zm2.92,1.53,0-.17c-.26-.12-.51-.26-.77-.37-.08,0-.19,0-.29,0,.05.12.08.27.17.34a1.58,1.58,0,0,0,.53.23A.77.77,0,0,0,24.19,76.18Zm1.68-.53s.12-.08.12-.14a.32.32,0,0,0-.12-.25,1.62,1.62,0,0,0-.54-.17c-.09,0-.22.09-.29.17s0,.21.07.22A7.39,7.39,0,0,0,25.87,75.65ZM10.24,81.44l-.15.07a1.51,1.51,0,0,0,.2.54.58.58,0,0,0,.73.19Zm21.82-7.19a2.79,2.79,0,0,0-.51-.07.48.48,0,0,0-.32.15.37.37,0,0,0,.11.32A5.24,5.24,0,0,0,32,75l.06-.11-.4-.32Zm-10.73.48c-.24.61.08.67.78.86l.08-.08ZM46.74,72.1l0,.27c.53-.18,1.1-.21,1.64-.38l0-.13Zm-22.17,4c-.07,0-.21.08-.2.11s.05.22.11.24a3.28,3.28,0,0,0,.68.19c.07,0,.15-.06.23-.09s-.07-.19-.13-.21A5.55,5.55,0,0,0,24.57,76.14Zm1-.3a1.09,1.09,0,0,0-.24.14s0,.17.08.18a4.26,4.26,0,0,0,.69.15c.06,0,.17-.11.19-.18s-.07-.17-.14-.19A4.54,4.54,0,0,0,25.59,75.84Zm22.57-4.43c.81.28,1.28.17,1.44-.25Zm-21.37.41.08-.08,0,.11c0,.1.07.2.1.3s.19-.05.19-.09a.52.52,0,0,0,0-.35,1.55,1.55,0,0,0-.44-.37c-.06,0-.2.09-.3.14Zm-12.5-7.06.63-1c-.14,0-.29,0-.32,0C14.41,64,14,64.25,14.29,64.76Zm12.48,10.4A1.08,1.08,0,0,0,27,75s-.09-.15-.16-.17a1.51,1.51,0,0,0-.47-.09.64.64,0,0,0-.32.13s0,.2.07.21A6.38,6.38,0,0,0,26.77,75.16Zm-1.52-4.65,0-.08a.35.35,0,0,0,.13.08,2.32,2.32,0,0,0,.38,0s.07-.15.06-.16l-.32-.17a.4.4,0,0,0-.15,0,2.85,2.85,0,0,0-.42,0s0,.13-.06.2Zm-.64,6.32a1,1,0,0,0,1.2.42C25.52,76.79,25.05,77,24.61,76.83Zm19.06,1.69c.18-.15.33-.26.47-.39a1.06,1.06,0,0,0,.16-.21.82.82,0,0,0-.3,0,3.77,3.77,0,0,0-.56.24ZM26.05,77.24c.19.28.66.28,1,0C26.83,77,26.65,77,26.05,77.24Zm.17-.78,0,.06H26a3.84,3.84,0,0,0-.36.14l.35.21a.24.24,0,0,0,.12,0l.53-.17Zm1-1a3.24,3.24,0,0,0-.62,0c-.09,0-.19.12-.28.18a1.11,1.11,0,0,0,.24.16,1.45,1.45,0,0,0,.3.06C27.11,75.84,27.24,75.71,27.21,75.42Zm10.87-.31c-.17-.39-1-.53-1.44-.3ZM27.5,77.63c-.28-.2-.62-.14-1,.18A.82.82,0,0,0,27.5,77.63Zm-6.64-5c-.34.28-.15.55-.07.78s.18.2.28.31l.13-.1ZM27.1,71l0-.16a6.58,6.58,0,0,0-.74-.4s-.14.1-.21.16.13.2.19.2.35,0,.4.22c0,0,.13,0,.2,0A.45.45,0,0,0,27.1,71Zm-.25,5.31a3.89,3.89,0,0,0,.61-.15c.05,0,.07-.14.1-.21a.84.84,0,0,0-.2,0,2.73,2.73,0,0,0-.5,0c-.09,0-.16.13-.24.2Zm17-1.22a2.47,2.47,0,0,1,.44-.29,2.08,2.08,0,0,1,.5,0l0-.12-.25,0h-.33l-.38,0ZM26.68,70.29l.05-.12c-.18-.31-.52-.31-.82-.37,0,0-.11.07-.12.12s0,.16.06.17C26.12,70.17,26.41,70.23,26.68,70.29Zm16,2.25L42,72.12v.67Zm-.83,6.53.09.21c.28-.19.71,0,.92-.42l-.06-.14Zm-14-6.95a1.27,1.27,0,0,0,.13-.2c-.17-.25-.36-.49-.54-.72l-.14.1ZM27,76.64l0,.12c.42.13.93-.1.86-.44Zm20.28,7.24c0,.63,0,.67.35.68l0-.64Zm4-13.92-.07-.07-.42.24-.32.17.31.26ZM46.45,75.7l.08.11a2.76,2.76,0,0,0,1-.73L47.41,75ZM27.69,71.08c.07-.25-.39-.84-.6-.77,0,0-.09.22-.05.26C27.24,70.75,27.46,70.91,27.69,71.08ZM11.16,84.85l.14.05c.11-.18.23-.35.33-.54a.9.9,0,0,0,0-.24c-.1,0-.26,0-.28,0C11.28,84.38,11.23,84.62,11.16,84.85ZM25.44,69.94l0-.21a6.83,6.83,0,0,0-.78-.06c-.07,0-.13.16-.21.27Zm-.94-.46a1.42,1.42,0,0,0,.21,0l.27-.21a1.15,1.15,0,0,0-.29-.08,1.09,1.09,0,0,0-.45.08c-.08,0-.13.15-.19.24a2.44,2.44,0,0,0,.27,0ZM44.61,81.93V82c.17,0,.37,0,.49-.09s0-.27.07-.47l-.57.14.32.18ZM28.39,72.17c.07-.11.16-.23.14-.25-.17-.23-.15-.61-.61-.64ZM24.18,70l-.05-.12c-.46,0-.88.18-.87.5Zm3.23.21.11-.21-.82-.43-.11.19Zm.95,4.9c-.76.32-.76.32-.76.48C28.31,75.39,28.31,75.39,28.36,75.08Zm-3-5.61,1,.17C26.15,69.25,25.74,69.17,25.35,69.47Zm8.58,9.89c.29.11.54.55.94.11Zm-5.55-8.18a.78.78,0,0,0-.73-.85Zm-.19,5.5-.82.45C27.84,77.24,28.26,77,28.19,76.68Zm9.07,1.08c-.08.28,0,.45.25.43s.24-.22.34-.35-.12-.13-.26-.28V78ZM35.8,79.14l.05-.17-1.16-.3,0,.11ZM25.12,72.56H25l-.07.54c.1,0,.23,0,.29,0C25.41,72.86,25.27,72.7,25.12,72.56ZM27,69.45l.06-.13a.85.85,0,0,0-.82-.32l-.05.12Zm-1.47,4.14a2,2,0,0,0,.29-.44c0-.05-.12-.15-.19-.22a1.44,1.44,0,0,0-.27.33S25.47,73.41,25.56,73.59Zm13.93,1.26.06-.14-.9-.31-.06.18ZM28.7,77.09a.75.75,0,0,0-.82.58Zm16.21-2,.08.13.71-.58C45.21,74.41,45.14,74.86,44.91,75.05ZM24.48,69l0-.11c-.42,0-.72.13-.73.41Zm4.63,8.28c-.39,0-.68.2-.81.71Zm-1.05-7.09L28.2,70l-.66-.53-.12.14Zm-.16,2.73L28,72.8a4.43,4.43,0,0,0-.29-.46c-.05-.06-.17,0-.25-.07s-.06.2,0,.24A4.82,4.82,0,0,0,27.9,72.89Zm.85-1.57-.18.08.33.82.16-.06ZM22.89,70l.81-.43C23.24,69.54,22.87,69.8,22.89,70Zm26.87.79.15.4.68-.22ZM44,79.09l-.18.07a2.07,2.07,0,0,0,.14.42s.18,0,.27,0Zm-15.1-7.9.13-.1c-.19-.22-.17-.59-.49-.71l-.13.09Zm-1.2-1.83.1-.16-.67-.39L27,69Zm-1.81,4.41c-.1.17-.19.26-.2.36s.15.19.18.17a.62.62,0,0,0,.25-.23S26,73.92,25.89,73.77ZM48.66,82.5l.63-.49C49,82.1,48.66,82.18,48.66,82.5ZM26.56,68.82l.05-.2-.79-.16,0,.17Zm-1.32-.25,0-.22-.75.16,0,.15ZM46.77,82.65c-.38-.34-.49-.33-.7,0ZM24.94,68.84V69h.84v-.11Zm4.15,2.61.27.9.1,0C29.32,72.07,29.58,71.68,29.09,71.45Zm18.18,5.64.11.08.56-.73-.1-.07Zm-9.93,3.52.09-.19-.6-.2,0,.12Zm-8.7-5-.09-.14c-.15.25-.62,0-.65.53Zm18.58-4.2v.17l.61,0v-.16Zm-14.9,5.1-.1.16.6.29,0-.1Zm16-.55c-.16-.07-.25-.15-.34-.15s-.11.1-.17.15a.87.87,0,0,0,.25.19S48.23,76.11,48.36,76Zm-20.17.26.11.15.56-.47-.06-.07Zm19.55,7.44c.27.42.48,0,.68.12v-.12ZM39.68,76a1.31,1.31,0,0,0,.22-.36s-.1-.12-.15-.18a.87.87,0,0,0-.17.22C39.56,75.73,39.62,75.81,39.68,76ZM26.74,74.28c-.11-.09-.2-.19-.22-.18a.82.82,0,0,0-.25.24s.12.19.13.18A1.81,1.81,0,0,0,26.74,74.28Z"/><path d="M0,82.68c.3,0,.5,0,.37.4a1,1,0,0,0,0,.39c0,.3.14.44.46.3a1,1,0,0,1,.3,0c0,.28,0,.51,0,.74,0,.06-.12.18-.16.17-.31-.1-.47.44-.79.18-.06,0-.06-.23,0-.32s0-.3-.22-.32ZM.71,84c-.09.12-.2.19-.2.26s.11.14.17.21.15-.13.17-.21S.79,84.09.71,84Z"/><path d="M59.74,59l-1.36-1.32a1,1,0,0,0,.21.94c.21.23.39.49.58.73l-.07.08-.43-.1c.21.29.14.6.5.78s.33.54.52.8a1.8,1.8,0,0,0,.54.49c.1,0,.3-.07.47-.11a3.17,3.17,0,0,0-.36.71,1,1,0,0,0,.09.6s.29,0,.53-.05c.22.4-.15.8-.17,1.22h0c-.42.13-.43.22-.22.59s.27.68.43,1c.31.59.09,1.22.19,1.84a16.36,16.36,0,0,1,.09,2.43,1,1,0,0,1-.15.53c-1,1.31-2,2.62-3.09,3.91-.88,1.11-1.82,2.16-2.65,3.31A42.67,42.67,0,0,0,53,81.1c-.68,1.18-1.23,2.43-1.84,3.64-.14.28-.31.28-.58,0l.41-.34-.38-.09a5.16,5.16,0,0,1,.14-.76c0-.15.2-.25.3-.38a3,3,0,0,0,.19-.3,1.12,1.12,0,0,0-.33-.19,5.42,5.42,0,0,0-.72,0,1.05,1.05,0,0,1,1.15-.06l.56-.24-.62-.47.75-.08c-.15-.55-.66-.25-.91-.41a2.71,2.71,0,0,0,0-.43,5.5,5.5,0,0,0-.69-.11l0,.11.24.36-.08.08-.7-.63c.36-.07.79.1.76-.47-.26,0-.54.2-.74.13s-.23-.38-.39-.68a3.69,3.69,0,0,1-.2.5.48.48,0,0,1-.24.21.42.42,0,0,1-.28-.11c-.24-.2-.43-.44-.83-.38a.83.83,0,0,1-1-.3l.59-.28v.3a3.18,3.18,0,0,0,1.35-1.06l.51.23.09-.07c-.1-.16-.17-.39-.32-.46-.33-.16-.52.08-.7.44-.08-.63-.53-.26-.8-.45l.68-.11-.5-.37c.4-.29.65-.17.78.36a5.22,5.22,0,0,0,.38-.73c.05-.2-.09-.29-.3-.21l-.33.15c.22-.26.45-.53.67-.81.06-.08.18-.21.16-.26-.11-.25,0-.33.2-.44s.42-.32.67-.52l.18.09a6.82,6.82,0,0,1,.25-.65c.12-.25.29-.49-.07-.7,0,0-.06-.13-.11-.25l1.13-.59.1.15-.65.6.42.33c0-.48,0-.58.53-.77-.15-.31-.45-.65-.4-.92s.45-.48.7-.72h-.56l0-.09.57-.26L52,71.12c.2,0,.44.42.58-.07,0,0,.06-.06.09,0,.48,0,.69-.4,1-.59.05,0,0-.16,0-.25s-.22,0-.23,0c-.13.39-.48.35-.77.42l-.93.19.19.31L50.86,71,51.55,70c.16.22-.11.66.38.63l0-.17c.29-.19.53-.34.76-.51,0,0,0-.15,0-.16s-.16-.08-.21,0a1.46,1.46,0,0,1-1.14,0c-.1,0-.3,0-.34,0-.29.41-.73.36-1.13.4-.12,0-.31-.16-.36-.29s-.1-.38-.37-.38c-.05,0-.1-.14-.16-.23L47,69.33v.15a1.27,1.27,0,0,0,1.06,0,1.64,1.64,0,0,0,.22-.12c.25.4,1,.12,1.07.76,0,.17.25.3.38.44-.46,0-.58-.06-.85-.68l-.86-.25c0,.54.49.23.72.41l-1,.29c-.1-.26-.25-.47-.66-.32a1.81,1.81,0,0,1-.61,0,1,1,0,0,0-.46.08l1,.26v.07c-.37,0-.73,0-1.09,0a1,1,0,0,0-.67.39l-.34.32h-.23c-.08.39,0,.49.35.5h1.39v.14h-2l0,.15.48.19c-.36.09-.76-.14-.85.22a3.27,3.27,0,0,1-.49.1,1.71,1.71,0,0,1-.79-.08,5.62,5.62,0,0,1-1.07-.9l.73.2,0-.11a1.67,1.67,0,0,0-1.67-.41l.16.07a.27.27,0,0,1,.13.19c-.27,0-.54,0-.8,0s-.54.06-.81.1l.35.24,0,.09-1.27-.18-.92-.16a.41.41,0,0,0-.19,0,2.1,2.1,0,0,1-1.68-.25c-.13.43-.38.23-.63.16-.5-.15-1-.26-1.5-.4-.22-.07-.43-.16-.69-.26l.1.37-1-.47-.09.28-.4-.08.28-.3c-.28-.32-.58-.14-.94,0L31,70l-.67-.49-.19.35a10,10,0,0,1-1.06-1,3.9,3.9,0,0,1-.42-.9l-.14,0,.06.42a3.84,3.84,0,0,0-.74-.45c-.79-.27-1.59-.51-2.38-.75a.89.89,0,0,0-.28,0c-.52,0-1.05.08-1.58.14a.67.67,0,0,0-.23.1c-.07,0-.12.11-.19.13-.31,0-.63.07-.93.15-.11,0-.16.23-.28.42a.61.61,0,0,0-.68.4h.81l-.19.25c-.19-.18-.34,0-.51,0s-.57.18-.83.31a.45.45,0,0,0-.16.39l.86-.33.07.39-.77.08c.58.43,1.28.31,1.94.49l.09.29.3-.07c0,.08,0,.13,0,.14a.35.35,0,0,1-.18.06c-.37-.08-.6,0-.58.42l.16.41-.46-.08-.06,0c-.67-.1-1.18-.6-1.86-.36l.26.42a.5.5,0,0,0,.09.12c.24-.12.23.14.2.19-.32.6.14,1.14.12,1.71,0,0,0,.1,0,.18-.37,0-.33-.31-.34-.55V71.58l-.24.22L19.22,71a.78.78,0,0,0,.34,1,.6.6,0,0,1,.4.71A2.79,2.79,0,0,0,20.84,75l.15.18a.42.42,0,0,1,0,.14c-.3,0-.54,0-.65-.39s-.38-.7-.5-1.07a6,6,0,0,1-.13-1,1.47,1.47,0,0,0,0-.36c-.21.37-.44.73-.07,1.13a.21.21,0,0,1,0,.11c0,1.31.94,1.9,2,2.43,1.26.64,2.49,1.33,3.74,2l.75.38.05-.48c-.19-.08-.36-.14-.51-.22a.21.21,0,0,1-.05-.2.22.22,0,0,1,.19-.06,2,2,0,0,1,.48.39.62.62,0,0,0,.72.23,1.25,1.25,0,0,0,.39-.18c.41-.22.47-.2.76.27l-.47.35-.08-.07.32-.42-1,.23,0,.09,1.44.61c-.25.28-.51,0-.75,0s-.23-.06-.31,0-.16.17-.24.26c.1.06.22.16.32.15.4,0,.61.2.89.45a18.09,18.09,0,0,0,1.95,1.39c1.54,1,3.09,2,4.62,3a8.74,8.74,0,0,1,.75.65H34.25a12.52,12.52,0,0,0-1.37,0,2.74,2.74,0,0,1-2.1-.85c-.06,0-.06-.17-.11-.23a.9.9,0,0,0-.31-.24,1.68,1.68,0,0,0-.39-.07v-.12l.13,0,.31-.18-.35-.07c-.12,0-.28,0-.33-.12a.62.62,0,0,0-.59-.32c-.17,0-.41,0-.37-.35,0,0-.16-.11-.25-.17l-.07.09.17.37-.09.08-.49-.52c-.4-.4-.79-.8-1.19-1.19s-.35-.33,0-.65A1.1,1.1,0,0,0,27,80c-.12,0-.24,0-.36,0a2,2,0,0,1-.29,0l-.25.26c-.2.44-.37.84-.58,1.22s-.57.94-.83,1.42a.68.68,0,0,0,0,.45c.07.51.17,1,.27,1.57-.34-.21-.34-.56-.38-.88a7.94,7.94,0,0,1,0-1,3.94,3.94,0,0,0-1.23-2.71,7.18,7.18,0,0,1-.48-.7,3.85,3.85,0,0,0-.35-.35l-.45-.4,2.29,1a.78.78,0,0,0,1.06.59l.2.26.09,0c0-.09,0-.21-.11-.27-.52-.54-1-1.08-1.57-1.6a10.66,10.66,0,0,0-.89-.77c-.3-.25-.57-.25-.69,0s-.25.57-.37.86c-.39-.42-.78-.84-1.18-1.24A4.48,4.48,0,0,0,18,76.11a1.68,1.68,0,0,0-1.4.72.9.9,0,0,1-.52.33.58.58,0,0,0-.52.46c-.16.58-.43.72-1,.45-.19.23-.35.46-.16.79,0,.11,0,.29,0,.41s0,.61.37.78c.06,0,.06.23.06.36s-.06.22,0,.31a3.74,3.74,0,0,0,.22.45l.54-.29a3.1,3.1,0,0,0,1,1.88l.15-1.36h.12c0,.07.12.13.12.19,0,.47.36.55.69.69a2.61,2.61,0,0,1,.56.32c.52.4,1,.81,1.53,1.24a3.09,3.09,0,0,1,.39.58l.13-.1-.29.37c.23.2.54-.31.71.24-.73-.12-1.46.3-2.11-.37A5.52,5.52,0,0,0,16,83.39c-.55-.18-1.09-.35-1.64-.51a2.37,2.37,0,0,0-.45-.07c.27-.4.57-.8.82-1.22.1-.16-.25-.68-.45-.75a5.08,5.08,0,0,0-.8-.28,1.63,1.63,0,0,0-1.38.51.57.57,0,0,1-.7.18.42.42,0,0,0-.27,0c-.55.12-.68,0-.84-.51,0-.08-.05-.17-.09-.29l-.26.12c-.66-.07-.87-.44-.64-1.11l-.18,0-.3.35-.41-.21c-.31.46-.64.91-.93,1.38-.18.29-.3.61-.46.91a.27.27,0,0,1-.19.11c-.38.09-.76.16-1.15.24,0,0-.09,0-.11,0-.21.24-.51.2-.78.27A3.55,3.55,0,0,0,3,83.84a.87.87,0,0,0-.11.62c0,.33-.05.47-.38.47H1.8c.18-.51.33-1,.53-1.49a.63.63,0,0,1,.45-.31c.49,0,.49,0,.45-.41a3.83,3.83,0,0,0,2.7-1.61,5.61,5.61,0,0,1,3.9-2.44,6.69,6.69,0,0,0,1.59-.61c.68-.34,1.31-.76,2-1.1.46-.23.95-.39,1.43-.58a.83.83,0,0,0,.16-.09A3.22,3.22,0,0,0,13.62,75l.11-.73-.17,0c-.15.51-.09.39-.57.16a5.33,5.33,0,0,1-1.14-1A1.46,1.46,0,0,1,11.36,72c.11-.66.05-.78-.59-.69s-1.34.24-2,.39a1.65,1.65,0,0,0-.46.3s-.06.06-.09.07c-.69.17-1.38.39-2.08.49A17.91,17.91,0,0,1,4,72.74c-.88,0-1.76,0-2.64,0a3,3,0,0,1-1.06-.35C0,72.26,0,72,.28,71.88a6.53,6.53,0,0,0,2.38-2.32c.82-1.17,1.76-2.26,2.62-3.41a6.6,6.6,0,0,0,.51-1l.33-.66a.6.6,0,0,1,.72-.33c-.32.67-.59,1.35-1,2-.72,1.17-1.48,2.31-2.26,3.43a3.64,3.64,0,0,1-.91.84c-.24.18-.51.37-.39.65s.42.53.64.52c.8,0,1.6-.14,2.41-.22.41,0,.83,0,1.25-.12.93-.16,1.86-.35,2.8-.52A3.61,3.61,0,0,0,10,70.6c.28-.11.69,0,.75-.49,0-.08.26-.13.4-.19l.92-.46.25.5c.07-.95.84-1,1.39-1.24A14.2,14.2,0,0,1,16,68.05a.7.7,0,0,1,.87.47c.08.19.34.31.5.47a1.12,1.12,0,0,1,.16.22c.3.55.61,1.09.94,1.68l1.36-1.49.15.39c.06-.1.12-.16.11-.2a.61.61,0,0,1,.37-.79c.11-.06.16-.36.12-.53-.41-1.76-.84-3.53-1.29-5.29a9.62,9.62,0,0,0-.49-1.49A9.78,9.78,0,0,0,18,60a3.67,3.67,0,0,0-.64-.6c-.09-.08-.21-.17-.23-.27-.09-.44-.46-.44-.78-.51a.35.35,0,0,0-.31.1c-.25.41-.47.84-.69,1.28a2.36,2.36,0,0,0-.16.47l.55.07c-.2.57-.33,1.1-.89,1.37a3.22,3.22,0,0,0-.55.44c-.14.12-.27.18-.45,0s-.2.1-.29.18a3.85,3.85,0,0,0-.3.27c-.34.32-.7.61-1,.94s-.74.8-1.1,1.2a2.34,2.34,0,0,1-.24.31,3.62,3.62,0,0,1-.38.26,1.29,1.29,0,0,0-.16.09l-.85.86c-.12.12-.23.27-.35.4A.85.85,0,0,1,8.9,67c0-.09-.08-.21-.05-.26.25-.38.53-.74.83-1.16l-.21-.37.55.11c-.19-.41,0-.48.32-.64a3.64,3.64,0,0,0,.87-.88c.33-.38.66-.76,1-1.16a4.27,4.27,0,0,0,.43-.82c.15-.34.28-.7.4-1.05a2.32,2.32,0,0,0,.12-.57.35.35,0,0,0-.37-.38,1.61,1.61,0,0,0-1.35.35c-.17.17-.31.37-.47.55a3.17,3.17,0,0,1-.61.65,5.3,5.3,0,0,1-1,.4l-.08-.08a8.9,8.9,0,0,1,.84-.89A6.56,6.56,0,0,0,11.72,59,7.53,7.53,0,0,1,13,57.53c1.15-1.19,2.32-2.35,3.46-3.54.47-.48.86-1,1.31-1.51a3.29,3.29,0,0,1,1.8-1c.26-.06.51-.14.76-.21.79-.22.86-.24.84-1.07,0-1.49-.11-3-.23-4.47a2.06,2.06,0,0,0-.48-1,8.35,8.35,0,0,1-1.6-3.24c-.56-2.18-1.16-4.35-1.76-6.51-.24-.9-.64-1.76-.79-2.66a17.66,17.66,0,0,1-.21-3.17,1.35,1.35,0,0,1,2.17-1.11c.25.16.47.35.71.5s.48.13.49-.21c0-.57,0-1.15,0-1.72,0-1.57-.07-3.14-.07-4.71,0-1.29,0-2.57.07-3.85A10.31,10.31,0,0,1,20.58,14c.61-1.3,1.32-2.56,2-3.83a1.19,1.19,0,0,1,.32-.44A8.63,8.63,0,0,0,24.53,8a15,15,0,0,1,2.78-2.42c1-.73,2.11-1.25,3.16-1.89a9.9,9.9,0,0,1,1.47-.55c.82-.33,1.62-.74,2.46-1a15.35,15.35,0,0,1,7.3-.85,30,30,0,0,1,5.23,1,6.49,6.49,0,0,0,.76.19,18,18,0,0,1,5.83,2.65c.74.47,1.39,1.07,2.12,1.55a8.94,8.94,0,0,1,2.73,3.11,29.09,29.09,0,0,1,2.75,6,18.88,18.88,0,0,1,.46,2.38c.16,1,.3,1.94.44,2.93H61.8a.64.64,0,0,0,0,.09,3.34,3.34,0,0,1,.31.63c.15.75.26,1.51.38,2.27,0,.29.06.59.08.88,0,.5,0,1,.08,1.6l-.3-.52-.1,0,.26.54c.12.24.25.48.35.73.16.41.31.46.67.19l1.15-.88c.18-.14.33-.1.53,0a1.93,1.93,0,0,1,.92,1.75,3.35,3.35,0,0,0,0,.63,2.43,2.43,0,0,1-.59,1.81c-.07.11-.15.29-.11.38a2.05,2.05,0,0,1,.14,1.22,4.52,4.52,0,0,0,0,.79l-.44-.12a11.47,11.47,0,0,0-.65,3.46,8.63,8.63,0,0,1-.28,1.57c0,.08-.12.14-.12.15a11.13,11.13,0,0,1-.36,3.28c-.52,0-.56.09-.43.56,0,.05,0,.11,0,.15-.3.54-.31,1.22-.83,1.66A2.31,2.31,0,0,0,62,45.25L60.85,50.7c0,.13-.07.25-.12.4l-.3-.32c0,.13,0,.17,0,.2A2.28,2.28,0,0,1,60,53.44a2,2,0,0,0-.5,1.59,1.44,1.44,0,0,1-.26.75c-.09.16-.08.82.09.95a1.26,1.26,0,0,1,.57.91c0,.32.28.61.37,1l-1.5-1.44-.11.06c0,.09,0,.21.08.27.3.36.63.7.93,1.06a1.12,1.12,0,0,1,.1.38ZM39.2,17.72l.47-.23-.39-.33.34-.1,0-.16L38.55,17c.1.14.21.23.32.22.41,0,.42.18.34.48l-.69-.27.11.52.38-.13A.8.8,0,0,0,39.2,17.72ZM55.34,45a.55.55,0,0,0-.75.4l.47-.06-.45.4c.17.07.41.1.44,0,.16-.36.42-.34.82-.15l-.5-.63c.45-.28.6-.65.36-.81l-.68.56ZM39.91,26.64c0,.05,0,.13,0,.13l1,.44.06-.13-1-.43,1,.13c.07-.12.09-.19.13-.2a.6.6,0,0,1,.23,0l1.58.26-1.11.09a1.76,1.76,0,0,0,.77.13c.27,0,.52-.2.78-.21.45,0,.89,0,1.33.06V27l-.77.11c.58.35.94-.2,1.41-.18l-.3.19c.22,0,.4-.09.58-.09a8.32,8.32,0,0,1,.94.06c-.33-.57-.33-.56-.78-.39a1.4,1.4,0,0,1-.46,0c.81-.28,1.17-.29,1.5.21l-.3.47a22.77,22.77,0,0,1,4.74-.4l-.4-.27a1.22,1.22,0,0,1,.54.07,2.18,2.18,0,0,0,1.36,0,1.9,1.9,0,0,1,1.67.16,1.61,1.61,0,0,0,.5.14L55,27l-.29-.21,0-.05,1.15.34-.32.1,1.33.63.07-.08-.82-.89.33-.44.5-.64a1,1,0,0,0-.17-.19c.32-.12.53-.27.37-.63,0-.06.08-.2.15-.29s.19-.25,0-.45-.43-.4-.21-.72c0,0,0-.08-.06-.14l-.28.26-.08,0,.16-.84,0,.14-.3-.36.11-.08.19-.28-.08-.08-.68.56-.1-.07.41-1-.08-.07-.75.39-.06-.1.44-.41-.07-.06-.91.63c-.22-.54-.47.09-.71-.05l.13-.34-.1,0c-.07.13-.15.25-.21.38a.4.4,0,0,1-.69.15.38.38,0,0,0-.24-.06l-.48,0c.41-.45.41-.45.3-.7-.11.16-.2.29-.3.42s-.18.35-.33.42c-.4.21-.84.35-1.26.52h0l.43-.33.71-.51L52,21.7a2.11,2.11,0,0,1-.33.18,2,2,0,0,1-.44.05l.27-.4,0-.06-.85.36,0-.11.27-.36c-.35.06-.73,0-.88.17a9.47,9.47,0,0,1-.94.76l-.68.6-.21-.31-1,.22-.06-.27-.33.52-.07-.4a2.35,2.35,0,0,0-.71.07c-.34.15-.63.37-1,.05,0-.05-.17,0-.25,0a4.36,4.36,0,0,0-.51,0,1.23,1.23,0,0,0-.32.07c-.17.09-.33.2-.49.3-.44-.36-.83-.38-1,0-.46-.18-.47-.54-.35-1l-.12,0-.29.89c-.11-.52-.35-.34-.59-.29l0,.36h-.41l-.17-.69c-.23.07-.49.07-.55.18a.32.32,0,0,1-.51.15c-.12-.06-.17-.26-.26-.4l-.13.39-.32-.17c-.48.75-.82.09-1.18-.13a2.91,2.91,0,0,0-.33.73.59.59,0,0,0,.19.51,6.26,6.26,0,0,0,1,.28l-.63.34,0,.08.62-.1-.33.29.68.12-.17-.19.72.05c-.07.11-.12.33-.22.35-.31.07-.66.18-.93-.15a1.64,1.64,0,0,0-.41-.24l0,.09.2.15a15.2,15.2,0,0,0-2.3-.41,1,1,0,0,1-.3-.26.52.52,0,0,0-.73-.14.9.9,0,0,1-.83.15,1.82,1.82,0,0,0-.68,0l.22.25a.58.58,0,0,1-.27,0c-.17,0-.46-.11-.51,0-.21.29-.43.18-.61.11l-.19.32.66-.08-.18.16.47.22c-.33.09-.64,0-.84.3,0,0-.27,0-.41-.06s-.3,0-.4,0a1.55,1.55,0,0,0-.31.36l.06.06.22-.09a1.27,1.27,0,0,0,1,.75h0a1.44,1.44,0,0,0,.4.09,4.66,4.66,0,0,1,1.93.18,4.48,4.48,0,0,0,.69.27,2.4,2.4,0,0,0,.6,0l.23,0,0,.18,1.12.24c.31-.4-.19-.46-.35-.67a3.6,3.6,0,0,1,2,.22c.59.29,1.38,0,1.85.66l.38-.17c-.29-.12-.53-.23-.78-.32a1.9,1.9,0,0,0-.46-.15c-.41-.08-.88.05-1.2-.46.13,0,.3-.13.33-.09C39.05,26.7,39.49,26.61,39.91,26.64ZM31.76,40.25a4.45,4.45,0,0,1,.62,2.15c.41-.67.42-.68.81-.3l.16-.24-.48-.26.51-.48.07.44.78-.69.07.09,0,.37.88-.51.25.36-1,.64.73.2c-.46.24-.92.29-1.26.74l.4-.07.74.78-.38.71-.07,0,.09-.74h-.12c.14.35-.57.6-.16.94v1.7c0,.61.45,1,.79,1.44,0,.36.12.48.67.47l.33.84.25-.38a4.36,4.36,0,0,0,.51.7.83.83,0,0,1,.32.63c0,.09.15.19.23.28s.11.23.19.3a3.71,3.71,0,0,0,.83.66,1.82,1.82,0,0,1,.95,1c.16.4.26.83.39,1.24l-.12.06-.24-.4-.32.18.21.25v.46c-.15.12-.51.2-.1.49h0a1.73,1.73,0,0,0,.4,1c.12-.53.37-.68.71-.35a1.16,1.16,0,0,0,1.07.38l.39.43,0-.6.1,0,.12,0a2.16,2.16,0,0,0,1.53.28,1.5,1.5,0,0,1,.42,0,12,12,0,0,0,1.58.06,6.91,6.91,0,0,1,2.56.46c.08,0,.12.14.13.16a1.9,1.9,0,0,1,.51,0c.53.1,1.06.23,1.6.32a.75.75,0,0,0,.44-.08.76.76,0,0,1,.81,0,.38.38,0,0,0,.33-.07,3.61,3.61,0,0,0,.4-.48,2.79,2.79,0,0,1-.07-.4c0-.21,0-.43,0-.65a1.33,1.33,0,0,1,0-.28.29.29,0,0,1,.13,0,1.47,1.47,0,0,1,.08.28c.09.34.17.67.28,1,0,.06.15.08.24.12a.81.81,0,0,0,0-.27c-.07-.16-.18-.31-.24-.48s.06-.15.1-.22a.69.69,0,0,1,.19.1c.14.14.27.28.41.44.28-.33.23-.52-.05-.7a3.05,3.05,0,0,1-.49-.38s0-.14,0-.11h.55c-.06-.15-.11-.29-.18-.44a2.12,2.12,0,0,0-.11-.21l.06,0,.37.26.19-.21-.55-.68h.89c-.47-.38-.21-.62.12-.85l-.66-.13v-.1h.69l0-.13a3.39,3.39,0,0,1-.85-.43,3.34,3.34,0,0,1-.74-1c-.16-.33-.33-.56-.66-.6l.44-.79.16.06s.08.07.13.09.35-.08.21-.18a1.82,1.82,0,0,0-.55-.23L52.45,47l-1.86-3.43.53,0-.47-.67-.1.06,0,.49L49,42.05l.35-.28L49,41.72v-.06l.88-.25.12.26-.55.32,0,.12,1-.19-.29.57a1.86,1.86,0,0,0,1.4.13c0,.2-.09.38,0,.47.27.4.07.56-.43.65l.65.84.3-.69-.33-.17.46-.28L51.74,43c.13-.19.13-.19.5-.13l.15-.32H52l.14-.24c-.14-.1-.31-.15-.34-.25a1,1,0,0,1,0-.39h-.78l-.19.51.28.26-.62-.14c.28-.5.28-.5-.18-.73l-.09-.08c-.35-.41-1-.48-1.27-1-.17-.28-.62-.41-1-.55a4.18,4.18,0,0,1-1.4-1.13,2.75,2.75,0,0,1-.35-.73c.48.21.89.61,1.46.46A6.29,6.29,0,0,0,46.64,38a3,3,0,0,1-1.43-1.44l.25-.19c.47.39.92.77,1.38,1.13s.94.64,1.39,1c.25.19.44.45.69.64a5.45,5.45,0,0,0,1,.64c.44.2.92.32,1.46.5l-.57.81.59-.11,0,.3c.3,0,.65,0,.85.11.36.25.58.11.85-.1a2.19,2.19,0,0,1,.41-.16l-.08.52h.42v.1l-.45.1,0,.13c.13,0,.28.12.37.08a5,5,0,0,0,.81-.46,9,9,0,0,0,.81-.7c.16-.13.24-.09.32.09s.24.21.38,0a.33.33,0,0,1,.15-.11c.19-.07.39-.12.58-.18l-.2-.53.37.19.71-1.25-.47-.55.58.13c0-.13,0-.18-.07-.21-.45-.38-.42-.66.07-1,.1-.06.22-.24.19-.34a5.62,5.62,0,0,0-.3-.73,2,2,0,0,1,0-.26.77.77,0,0,1,.27,0,1.57,1.57,0,0,1,.24.21l.08,0L58,35.2c.34-.06.34-.06.23-.36L58,35l-.38-1,.38-.11c.17.3.13.81.64.66.13,0,.15-.4.22-.62l-.12,0-.14.16-.38-.75.67-.08-1-.9a1.45,1.45,0,0,1-.19-.29c-.06.12-.12.23-.17.35s0,.12,0,.18c-.26,0-.66,0-.47.35s-.12.81-.06,1.23l-.31-.46v.48a.61.61,0,0,1-.36-.7c0-.2.05-.41-.22-.4a.32.32,0,0,0-.33.42c.06.27.1.53.15.82h-.52l.44.74c-.42,0-.4-1.07-1-.39H53.2c.39-.44,1,0,1.43-.57l-.47.05.26-.32-.34,0,.15-.29-.38,0,.08-.25-.89.11v-.42a2.31,2.31,0,0,1-.46.16,2.4,2.4,0,0,0-1.46.64,2.47,2.47,0,0,1-.92.45,4.17,4.17,0,0,1-.8.11v.06l.55.16,0,.13c-.32-.09-.64-.2-1-.27a6,6,0,0,1-1.88-.63,1.38,1.38,0,0,0-.47,0l.19.52L46,33.94l-.07.15c.3.17.6.33.88.52.08,0,.09.18.14.28h0a6,6,0,0,1-1-.6.64.64,0,0,0-1.06.26c.15.17.31.44.51.17a3.41,3.41,0,0,0,.67.93,6.59,6.59,0,0,1,1,.77.81.81,0,0,0,.27.16c.47.19,1,.35,1.42.57a5.3,5.3,0,0,0,1.72.8,1.43,1.43,0,0,1,.22.14l-.38,0,.45.64L49,38.18l.6-.06c-.25-.12-.49-.22-.73-.35A9.08,9.08,0,0,0,47.43,37a5.87,5.87,0,0,1-2.92-2,.54.54,0,0,0-.28-.2c-.43,0-.86-.07-1.29-.07s-.83,0-1.24,0c-.18,0-.36,0-.43.05a5.18,5.18,0,0,0-.76-.62c-.22-.13-.5.05-.41.26s-.13.6-.08.92a2.2,2.2,0,0,1,0,.45l-.55.13a1.61,1.61,0,0,0,.15.28.59.59,0,0,1,.14.76,5.26,5.26,0,0,0-.25,1.1l-.86-.8c-.06-.52,0-.73.49-.78-.1-.32-.22-.62-.29-.92-.1-.45-.19-.55-.62-.51l-1.82.17c-.46,0-.62.45-.86.74-.06.08.09.34.14.51s0,0-.09.11c-.1-.22-.26-.42-.24-.6s.23-.33.36-.49a1.32,1.32,0,0,0-1.35.27.65.65,0,0,1-.89.18l1.3-.85,0-.19-.57-.11c-.32,0-.71,0-.94-.12a2.22,2.22,0,0,0-1.11-.23c-.12,0-.25.1-.43.19-.18-.14-.41-.09-.64.13a.64.64,0,0,1-.72.15,2.46,2.46,0,0,0-.46-.08c.27.4.67.43,1.1.52L29.9,36l.08.26.82-.37,0,.08-.28.21c.05.42.45.73,1.07.85l-.28.53c.28.24.54.12.8,0a.9.9,0,0,0,.51.06c.38-.07.76-.18,1.14-.27l0,.1c-.26.14-.53.4-.8.41a8.93,8.93,0,0,1-1.86-.15c-.38-.07-.53,0-.62.38l.27.1c.14.23.19.46.33.52a2.7,2.7,0,0,0,.78.11l-.43.26.13.1-.12.56.69-.07c-.21.19-.65.2-.44.62-.4.05-.29.49-.6.66L32,41l-.35-.26ZM41.5,16.93l.07.1c-.08.06-.15.17-.23.18a1.33,1.33,0,0,0-.93.61.22.22,0,0,0,0,.1l.42,0,0,.13a.48.48,0,0,0-.18.07,3,3,0,0,0-.24.26l.28.19.35.24s.07,0,.12,0l0-.28.6.39c-.27.2-.18.34,0,.45l-.41.32.09.13.38-.09c.11,0,.26-.08.32,0,.31.28.7.15,1.05.23a.35.35,0,0,0,.21-.07l.48-.35.19.62c.37-.4,1.06-.55.74-1.27h.29c.07-.13.1-.21.14-.28l.23-.29c-.68.15-1.23.47-1.87.25.36-.51,1-.65,1.2-1.22a.25.25,0,0,1,.15-.11,6.36,6.36,0,0,1,.62-.19c.08,0,.22-.07.25,0,.31.4.61-.1,1,.1l-.26-.7-.36.4-.34-.21.58-.31,0-.12-1.08.21,0-.1.85-.46-.06-.12-.42.14v-.34a1.7,1.7,0,0,1,.41-.15c.15,0,.38-.09.44,0,.22.27.39.06.49-.06s0-.32-.2-.4c0,0,0-.06-.06-.12h.57l0,.28c.3-.31.92.07,1.09-.61a1.41,1.41,0,0,1-1.51-.09,1.26,1.26,0,0,0-1.25-.13,3.89,3.89,0,0,1-.92.24c-.35.07-.71.12-1.07.16-.07,0-.15-.05-.22-.08.58-.26,1.08-.7,1.7-.44.08-.1.13-.22.19-.24.59-.09,1.19-.19,1.78-.25a7.39,7.39,0,0,1,.94,0l1.71.06c.31,0,.62.08.93.09s.7-.21,1.07,0c0,0,.21-.11.22-.18a6.1,6.1,0,0,0,0-.77c-.2.19-.31.31-.44.41a.37.37,0,0,1-.28.08c-.07,0-.19-.14-.18-.16.14-.3-.12-.41-.25-.59s-.17-.46.21-.55.94-.26,1.4-.41c.07,0,.11-.13.16-.2a1.21,1.21,0,0,0-.2-.14c-.21-.08-.42-.16-.62-.22s-.2-.07-.26,0a.46.46,0,0,1-.66,0c-.19.08-.34.22-.47.19s-.46-.21-.7-.28a.42.42,0,0,0-.37.11.46.46,0,0,1-.7.21,3.6,3.6,0,0,0-1.84-.41,3.52,3.52,0,0,0-1,.21c-.09,0-.2.16-.27.13a2.19,2.19,0,0,1-.42-.28s0,0,0-.08l.31.06c-.41-.57.16-.92.24-1.35a3.81,3.81,0,0,1-.5.4c-.34.17-.35-.18-.46-.36-.42.24,0,.44,0,.65-.4.08-.6-.63-1.1-.16l.76.53-.53.06a2,2,0,0,0-.5.1c-.23.11-.43.29-.66.41a.84.84,0,0,1-1.07-.18c-.15-.15-.34-.42-.47-.4-.38.06-.44-.2-.6-.41A1.42,1.42,0,0,0,42,9.85V9.7l-.73,0,.35-.48-.07-.1c-.46.23-.74,0-1-.43l-.1.48c-.17,0-.4,0-.43.09-.13.35-.38.36-.78.23l.34.56-.41.21L39,9.82c-.16.07-.3.19-.36.16a2.62,2.62,0,0,1-.4-.41s-.23.14-.22.17a3.15,3.15,0,0,0,.28.51l-.63.06c-.06-.36-.25-.39-.57-.19a.92.92,0,0,1-.45.05h-.48c.13.3.54.42.28.75h-.9l0,.5c-.17-.14-.25-.25-.36-.29a.8.8,0,0,0-.49-.07,3.68,3.68,0,0,0-.73.45.36.36,0,0,0-.16.23A.32.32,0,0,0,34,12c.32.08.24.25.06.37a.51.51,0,0,0-.25.63.27.27,0,0,1,0,.19c-.16.29,0,.32.25.38.59.15,1.16.34,1.72.51L35.3,15.2a9.5,9.5,0,0,0,1.79.5c.76.07,1.06.65,1.56,1.12a2.41,2.41,0,0,0,.71-.25c.64-.46.87-.46,1.37.13C40.93,17,41.14,17.17,41.5,16.93Zm8.56,44.19-.23.8.45-.08.17.45.16-1.09-.29-.09c.08-.12.19-.21.21-.32s.21-.48-.1-.69a8.4,8.4,0,0,1-.85-.73l.09-.13c.21.1.6.21.6.31,0,.49.41.45.67.63,0-.15,0-.34-.1-.36-.34-.1-.28-.38-.34-.57.6-.41,1,.13,1.56.21l-.26-.92.78-.07L51.71,58l.63-.23a3.6,3.6,0,0,0-.45-.17l-1.74-.16L47,57.12c-1-.1-2-.18-3-.33a15.51,15.51,0,0,0-3.73.16c-.27,0-.54.1-.81.15v.12a3.71,3.71,0,0,0,1.08.13c.37-.07.41.07.41.3h.34l-.18.36c.35.36.93.06,1.38.36l-.39.14,1.13.08.08-.26.34.3a1.62,1.62,0,0,1,.62,0,5.61,5.61,0,0,0,.82,0c.52-.06.67.08.55.55l2.25.39.43-.22a1.94,1.94,0,0,0,.06.53,1.64,1.64,0,0,0,.48,0l.19-.6c.34.62.84,1,1,1.61l-.38-.08-.05.12Zm-1.75,3,.08,0-.69,1.11-.26-.43-.09,0,.33.85.51-.4a2,2,0,0,0-.06.31.49.49,0,0,0,0,.16h.12a4.46,4.46,0,0,0,.2-2.34l.39-.31.2,1,.28.07c-.11.59-.11.59.3.89a1.17,1.17,0,0,0-.29-1.41,1.54,1.54,0,0,1-.2-.43l.19-.09c.28.43.55.87.85,1.3.07.09.22.13.36.21l.07-.37.38,0-.85-1.18.07-.06.37.1.08-.08c-.16-.18-.34-.53-.47-.51-.4,0-.35-.25-.44-.45l-.31.25L49,62l0-.09.58.2.08-.84-.1,0c-.35.63-.42-.08-.65-.1l-.3.21.2.22-.33.14-.51-1-.1,0,.24,1-.08,0-.3-.51,0,0L48.12,63l-.18.06a2.21,2.21,0,0,1,.15.73,1.92,1.92,0,0,1-.34.6l0,.08ZM62.84,34.86a2.31,2.31,0,0,0-.35.26,6.26,6.26,0,0,0,.42.63l-.21.19.87.56-.5.14c.21.19.36.31.48.44s.26.31.43.53a2.24,2.24,0,0,0,.39-1.19,5.29,5.29,0,0,1,0-.89c0-.47.14-.93.17-1.4a2.86,2.86,0,0,0-.08-.67,3,3,0,0,0-.68,0,1.44,1.44,0,0,0-.54.3,2.68,2.68,0,0,0-.56.65C62.65,34.51,62.79,34.72,62.84,34.86ZM20.22,76.42a28.79,28.79,0,0,1,5.09,2.9C25,77.84,21.56,75.93,20.22,76.42ZM62.9,31.21a.89.89,0,0,0,.15-.12c.21-.51.43-1,.62-1.54a.45.45,0,0,0,0-.34,8.59,8.59,0,0,0-.43-.77c0,.23-.09.36-.1.5,0,.3-.22.43-.46.25s-.17-.33-.26-.5a1.21,1.21,0,0,0-.14-.2c-.05.05-.16.11-.15.14.08.27,0,.6.34.77a.54.54,0,0,1,.14.88c-.29-.66-.46-.86-.78-.91Zm-.55,8.72c.36.62.61.52.94-.08a1.5,1.5,0,0,1,.33-.42c.39-.38.42-.59.1-1a4.89,4.89,0,0,0-.45-.46,2.73,2.73,0,0,0-.26.51c-.13.44-.22.89-.34,1.42Zm2.52-10.44c-.56.08-.57.08-.54.58s0,1.1.11,1.64a1.81,1.81,0,0,0,.22.52l.22,0A4,4,0,0,0,64.87,29.49ZM49,33.74l2.15-.41.12-.32-.94.26V33c-.12,0-.29.07-.3.12,0,.31-.28.21-.44.21-.41,0-.83-.09-1.24-.07a9.08,9.08,0,0,0-1.14.2l0,.15,1.38.1-.11-.25.69.09Zm6.24,38.79-.58.12,0,.13.32,0c-.15.39,0,.59.36.66L55.16,73c.45.14.79,0,.79-.26s-.2-.35-.32-.52ZM42.56,10.44a.75.75,0,0,1,0-.28c0-.09.11-.18.13-.27.06-.42.18-.49.57-.31a2.08,2.08,0,0,0,.36.05l0-.11-.32-.18a.78.78,0,0,0-1.05.44c0,.26-.09.49-.39.59,0,0-.06.09-.14.21Zm4.19,54.3-.63.73a2.51,2.51,0,0,0,.33.23,2.36,2.36,0,0,0,.57.18s.19-.21.17-.27C47.06,65.3,46.89,65,46.75,64.74Zm.8-2.21-.73-1.65-.12,0c0,.32.1.63.12,1C46.87,62.43,46.93,62.49,47.55,62.53ZM55,44l-.14-.11-.69.57.13.13-.21-.13-.16,1,.07,0,.19-.26.19.25.07,0-.11-.59.23,0ZM29.53,36.46l-.07.13,1.73.77.12-.15c-.11-.13-.21-.31-.35-.36C30.49,36.69,30,36.59,29.53,36.46ZM51.89,68.25l-.07-.13-1.27.54.29.27-.34.13c.38.24.42-.16.56-.24l.53.16-.16-.37Zm4.48,5.84c-.59.56-.66.59-1.09.55.23.49-.36.38-.52.71.74,0,1.08-.66,1.61-.92C56.4,74.42,56.37,74.27,56.37,74.09Zm-17.94-21h.13c0-.49.28-1,.09-1.47l-.45.21Zm6.45,12.53,0-.35.57.53.11-.08c-.2-.38-.65-.69-.33-1.23a3.84,3.84,0,0,0-.44.5C44.57,65.18,44.56,65.38,44.88,65.58ZM56.19,44.46l.22.09.72-.65,0-.11-.28,0-.51-.67-.13.07C56.51,43.6,56.75,44,56.19,44.46ZM19.08,72.62l-.39-.57c-.2.29,0,.73.55,1.11l.14-.88,0,0ZM54.62,52.33,55.4,52,55,51.54C54.43,51.92,54.39,52,54.62,52.33Zm-2,15.21a1.14,1.14,0,0,1,.28-.13c.1,0,.23.08.3,0a2.88,2.88,0,0,0,.39-.32c-.08-.09-.15-.21-.25-.25S52.66,67.34,52.62,67.54ZM56.2,45.75l-.09-.11c-.3.28-1,0-1,.66l.12.16ZM48,32.93c-.33-.48,0-.91.05-1.39-.17.09-.43.22-.42.32C47.65,32.22,47.46,32.68,48,32.93ZM18.11,71.08l-.19,0c.41.46.14.91,0,1.36l.12,0,.45-.77Zm1.21,2.6c-.43.48-.17.77.41,1.32ZM47,64.5c.19-.33,0-.46-.15-.56s-.49-.23-.76-.35L46,64c.16.05.35.19.46.14C46.83,64,46.91,64.17,47,64.5ZM57.69,48.59l-.53-1a1.47,1.47,0,0,0-.07.82C57.12,48.53,57.44,48.53,57.69,48.59Zm-3.61-6.36-.14,0-.63.89.09.1c.07-.07.14-.12.2-.19s.14-.22.26-.41l0,.43H54ZM43.77,27.41A2.56,2.56,0,0,0,42,27.3c.19,0,.4,0,.59.05a3.46,3.46,0,0,1,.56.23C43.15,27.34,43.21,27.32,43.77,27.41ZM47,69.82l0-.1c-.68-.47-1-.5-1.06-.1ZM58.19,45.66h.13c0-.15.09-.36,0-.44s-.29-.11-.44-.14a1.84,1.84,0,0,0-.41,0c-.17,0-.34,0-.6,0C57.37,45.38,58,44.9,58.19,45.66ZM39.41,17.83c.08.55.59,0,.78.34l-.27-.86H39.8C39.75,17.56,40,18,39.41,17.83ZM53.05,11.6c.27.44.57.22.85.1.08,0,.11-.17.16-.26-.11,0-.28,0-.32,0a.34.34,0,0,1-.48.1S53.14,11.57,53.05,11.6ZM61.84,28l.64,0-.06-.45-.42-.1Zm-8.49-6.52c.33-.07.67-.14,1-.23.07,0,.12-.12.18-.18s-.1-.12-.13-.12C54,21,53.55,21,53.35,21.48Zm9.53,16-.55.12c-.34.08-.34.08-.33.4.32-.54.59,0,.92,0ZM52,74.68l.07.08.85-.55-.76-.46-.06.1.42.36Zm1.86-1-.44.6.11.11.25-.18c.08-.06.13-.16.21-.18a1.7,1.7,0,0,1,.39,0l-.35-.24Zm-5-8.34a.74.74,0,0,0,.17-.8s-.16-.11-.2-.09-.19.17-.18.24A4.74,4.74,0,0,0,48.88,65.3ZM47.45,9.88V9.65c-.24,0-.49-.05-.73-.05,0,0-.11.08-.11.13s0,.14.09.14C47,9.89,47.2,9.88,47.45,9.88Zm5.27,10.34c-.37.39.08.49.18.72C53.25,20.56,53.23,20.49,52.72,20.22ZM50.26,76.05c.32.18.47-.06.59-.22s.38-.36.27-.72a5.19,5.19,0,0,1-.4.56A3.72,3.72,0,0,1,50.26,76.05ZM37.47,24.45c0-.51-.36-.67-.9-.41ZM55.21,47.16c0,.06.11.12.12.2a.53.53,0,0,1,0,.24c.12,0,.28,0,.34-.1a2.14,2.14,0,0,0,.22-.52Zm-16,6.36c-.28-.32-.28-.32-.92.14l.34.33.28-.41s0-.06-.08-.17ZM55.74,43c-.36-.11-.54.17-.69.42-.06.09,0,.26,0,.38Zm-1.68,6.35.09-.14-.74-.42-.07.65.38-.28Zm-5-39.82,0-.13c-.09,0-.22-.09-.27-.05a2.38,2.38,0,0,0-.43.41s0,.12.07.18ZM39.26,20,38.83,20l-.23.39.32,0-.18.11s0,.06-.07.09l.12.08Zm6.37-.3-.05-.15-.7,0,.18.44Zm5.19,47.11c.54.36.73.32.75-.09Zm-5.25-2.53.87.36C46.36,64.25,46,64.11,45.57,64.32Zm5.18,14.07c.54.16.59-.32.84-.51l-.08-.12Zm1.92-.6c-.11-.3-.2-.35-.43-.26s-.18.18-.27.27l.26.2.08-.3Zm-37.52-3-.14,0c-.13.49-.07.65.3.66ZM56.27,58.13c-.11-.82-.11-.82-.32-.84L56,58ZM54.46,43.46l-.22.11,0,.12a1.75,1.75,0,0,0,.4,0,.34.34,0,0,0,0-.27,1.14,1.14,0,0,0-.26-.28l-.09.08Zm-1.19,7,.37-.34a1,1,0,0,0,.09-.18c-.06,0-.14-.07-.19,0a5.26,5.26,0,0,0-.47.24ZM63.94,30.59l-.39.85C64,31.24,64.11,31.06,63.94,30.59ZM61.7,26.08c-.28.45-.21.68.21.78ZM13.43,73.93c.37-.09.24-.34.16-.53s-.19-.1-.32-.16Zm33.9-10.59-.14.08.29.71.22-.5Zm13.81-42c-.08-.25-.14-.46-.22-.66,0,0-.11,0-.16,0s-.07.09-.06.12a2.18,2.18,0,0,0,.17.51c0,.06.13.1.2.13S61.15,21.3,61.14,21.31Zm-4.08-1.6-.15.08.35.77.18-.09ZM54.34,46.87l.41-.45c-.08-.05-.19-.15-.24-.12a.62.62,0,0,0-.27.26S54.29,46.72,54.34,46.87ZM49.46,21.49l-.1-.18-.73.38.08.16Zm12.91,3.79c-.09-.59-.29-.78-.63-.69Zm1.45,6.38-.23-.1-.22.57.19.08Zm-5.92,39c.44.19.56.13.67-.35ZM14.67,61.26l-.12-.08-.66.79.11.1Zm46.6-38.87-.07-.08a1.92,1.92,0,0,0-.32.09.6.6,0,0,0-.18.23s0,.12,0,.12a.51.51,0,0,0,.28-.08A1.68,1.68,0,0,0,61.27,22.39ZM50.16,69.07l-.87-.21A.57.57,0,0,0,50.16,69.07Zm1.1-5.9-.19,0a4.42,4.42,0,0,0,0,.63c0,.06.15.11.21.15ZM49.47,78.49l.13.18.55-.43-.09-.13Zm6.32-35-.48.62.08.06C55.58,43.93,55.94,43.88,55.79,43.44Zm-.17,4.4c-.18.65-.17.66.31.56ZM55.52,53l-.12,0,.15.37-.29.14.05.12c.13-.06.38-.13.38-.2A1.32,1.32,0,0,0,55.52,53ZM54.24,42.17l.07.09.57,0c-.07-.1-.17-.3-.21-.29A2.09,2.09,0,0,0,54.24,42.17Zm-.56,5.2a5.45,5.45,0,0,0,.3-.5s-.08-.1-.13-.15a3.6,3.6,0,0,0-.28.4S53.62,47.24,53.68,47.37Zm-.15-.95-.5.4C53.36,47,53.43,46.92,53.53,46.42ZM18.64,75l.15-.12-.49-.55-.12.1ZM55.22,49.46c.48-.18.52-.32.32-.57ZM54,50l.79.2C54.31,49.72,54.23,49.71,54,50ZM39.58,20.19c-.08.39,0,.41.59.34ZM61,44.79l.16-.12-.49-.56-.11.08ZM11.86,72.64l-.1.08.32.62c.06-.14.14-.24.11-.28A3.2,3.2,0,0,0,11.86,72.64Zm21.92-45.9a.77.77,0,0,0,.94.27ZM13.42,71.81l-.36.14.21.49h.09ZM50.86,40.67l0-.15-.6-.1,0,.17Zm0,39.8.17.08.18-.31L51,80.13Zm4.68-39c-.4,0-.52.11-.46.44ZM21.68,78.24l.16.07c.07-.15.14-.31.2-.47a1.16,1.16,0,0,0-.19-.09Z"/><path d="M44.35,84.3l-.31.47.49-.06,0,.1a1.15,1.15,0,0,1-.39.11l-2.58-.06c-.18,0-.37.08-.54.07-.49,0-1,.1-1.41-.3-.12-.12-.38-.1-.57-.14l0,.09.27.33a1.37,1.37,0,0,1-1.2-.62c.28-.36-.13-.58-.21-1l1.16.39c.2.08.32.16.48-.15s.5-.33.77-.48l.1.18a2.27,2.27,0,0,0-.32.22.77.77,0,0,0-.26.28c0,.06.13.19.23.24s.36.19.57.3v-.59l.31,0,.07-.51a3.33,3.33,0,0,0-.39-.24,1.09,1.09,0,0,0-.46-.15c-.38,0-.77,0-1.15,0h0a3.41,3.41,0,0,1,.44-.3,1.2,1.2,0,0,0,.42-.27l-.64,0c.13-.19.21-.26.23-.36s0-.15-.07-.22-.17,0-.19.07c-.12.33-.4.3-.65.28s-.57-.1-.85-.15l.22-.63c.07,0,.2,0,.26.12.32.37.54.39.91.11a4,4,0,0,1,.65-.3l-.49-.27,0-.1c.14,0,.3-.12.41-.08s.15.2.22.31,0,0,0,0c0,.86.19,1,1.07.63l.39.82c.23-.1.62,0,.73-.46a.13.13,0,0,1,.09-.07,4.34,4.34,0,0,1,1.09.12c.31.11.48.09.67-.22a3.42,3.42,0,0,1-.39-.05.38.38,0,0,1-.25-.59,1.23,1.23,0,0,0,.08-.54c0-.14-.07-.29,0-.42a.31.31,0,0,1,.25-.18c.34.1.67.24,1,.37.19-.25.27-.66.79-.53l-.3.35.84.61c-.45.22-.45.22-.89-.18-.38.49-.71-.12-1.09-.12l-.06.14.72.38-.49,1.53s0,0-.05,0a.69.69,0,0,0-1.13,0c-.12.12-.36.11-.54.16.24.35.47.34,1.37,0l.06.37c.24,0,.46.06.68.11s.29.19.11.38a2,2,0,0,1-.26.24c-.24.15-.19.28,0,.4Zm-1.09-.43.11.18.71-.43L44,83.44Zm.19-2.37.07.11.58-.23-.51-.22Z"/><path d="M69.14,73.76c.21-.57.4-1.13.63-1.69a1.64,1.64,0,0,0,.14-1.47c.06,0,.13,0,.18,0a10.45,10.45,0,0,1,1.63.65,9.1,9.1,0,0,1,1.21,1l2.38,1.89c.09.07.19.22.17.31a.41.41,0,0,1-.27.22,2.93,2.93,0,0,1-1.58,0c-.58-.13-1.18-.2-1.77-.29-.39-.06-.78-.11-1.16-.18S69.71,73.88,69.14,73.76Z"/><path d="M46.59,76.41c0,.07-.08.18-.13.19a7.83,7.83,0,0,1-.83.1c-.23,0-.47,0-.7,0a1.3,1.3,0,0,0-.43.15,5.06,5.06,0,0,0-.44.26L44,77l.24-.21,0-.12-.63.17a1.83,1.83,0,0,0-1.74-.29c-.11-.39,0-.54.4-.46s.6.27.95-.09a2.15,2.15,0,0,0-.41-.16,4.07,4.07,0,0,0-.78,0c-.43,0-.68-.3-1-.44,0,0-.08-.11-.12-.17l.06-.1a4.84,4.84,0,0,0,.47.21,5.23,5.23,0,0,0,.57.12l.05-.1-1.38-.68c.52-.4.66-.32,1.35.07l.48.25.06-.09-.31-.23-.34-.24.67-.58L42,73.54c.33-.16.59-.3.86-.41a.45.45,0,0,1,.28,0c.22.07.43.15.66.2,0,.17.58.27.16.65l-.34-.52-.25.57.28.24-.41.13.37.15a1.7,1.7,0,0,0,.11.68c.1.15.38.16.58.24v.14l-.76.14c0,.26,0,.58.4.68.15,0,.3.1.39-.15s.29-.14.42-.19l.06-.79.61,1.09h1.21ZM42.76,73.2c-.07.17-.15.29-.13.32a4.18,4.18,0,0,0,.44.4l.06-.08Z"/><path d="M12.32,84.3c-.14-.21-.25-.41-.38-.57a1.33,1.33,0,0,0-.39-.36c-.31-.17-.6,0-.52.33a.93.93,0,0,1-.19.78,1.36,1.36,0,0,0-.14.43,1.12,1.12,0,0,1-1.34-.81,2.06,2.06,0,0,1-.12-.7c0-.09.13-.19.21-.28a1.16,1.16,0,0,1,.2.18c.17.23.32.46.47.68l.15-.08c-.08-.19-.15-.38-.23-.56-.19-.41,0-.66.47-.66l1.09,0a.83.83,0,0,0,.21-.06L11.66,82l1.09.45v.15l-.55.12.34.53v-.09l1,.29-.27-.75.09-.06a2.12,2.12,0,0,1,.37.6,1.52,1.52,0,0,0,.54.83c.18.16.22.31-.07.5a1.22,1.22,0,0,1-.12-.19c-.22-.5-.83-.52-1.13-.91,0,0-.26,0-.31.12A7.83,7.83,0,0,0,12.32,84.3Z"/><path d="M27.72,75l.32-.54L28,74.34l-.45.23-.08-.06.21-.48,1.89,1.26v-.7c.09,0,.25,0,.33.1.33.34.65.7,1,1.1l.31-.37,1,.47,0,.17c-.35-.47-.73,0-1.07-.1l-.65,1.48c.26,0,.53,0,.66-.28a.56.56,0,0,1,.44,0,.87.87,0,0,1,.38.38c0,.12,0,.3,0,.45a.36.36,0,0,0,.05.21s.12,0,.18,0,.36-.25.5-.21a7.3,7.3,0,0,1,1.08.46l0,.15c-.08,0-.17,0-.23,0-.63-.37-.63-.37-1.18.08-.18.14-.31.07-.4-.12l-.22-.38-.16.07a2.52,2.52,0,0,0,.17.41A3.06,3.06,0,0,0,32,79l-.08.08a3.15,3.15,0,0,1-.29-.22c-.43-.39-.85-.8-1.3-1.18-.2-.17-.31-.33-.18-.6a.37.37,0,0,0,0-.29c-.34-.45-.47-1-1-1.38a3.73,3.73,0,0,1-.59-.6c-.18-.21-.33-.29-.5,0-.06.1-.19.15-.29.22ZM31,77.84l.86,0C31.37,77.35,31.15,77.37,31,77.84Z"/><path d="M35.79,83.07l-1-1.13a3.71,3.71,0,0,1,.5-.2c.07,0,.17,0,.25,0h.36a1.87,1.87,0,0,0-.16-.35c0-.07-.13-.11-.19-.27l.8-.05v.06l-.29.13c.27,1,.27,1-.55,1.29.1,0,.23.1.29.07a1.24,1.24,0,0,1,1.18,0c-.06.18-.13.36-.18.55-.08.35-.14.67.44.55.16,0,.36.15.59.25l-.45.37c-.21-.12-.34-.46-.68-.23,0,0-.21-.1-.28-.19-.23-.29-.44-.59-.65-.88l.76.49-.2-.4c.09-.06.2-.1.25-.18a.23.23,0,0,0,0-.22C36.37,82.63,35.87,82.85,35.79,83.07Z"/><path d="M61.92,68.32a1.26,1.26,0,0,1,0,.44c-.11.25,0,.39.27.47a6.77,6.77,0,0,0-.45,1c-.14.58-.18,1.19-.3,1.78a1.61,1.61,0,0,1-.3.6,3.93,3.93,0,0,1-.5.48,14.92,14.92,0,0,1,.25-1.58c.13-.55.39-1.07.52-1.62a3.48,3.48,0,0,0,0-1A.6.6,0,0,1,61.92,68.32Z"/><path d="M66,71.69a1.47,1.47,0,0,1,.51,0,3.28,3.28,0,0,1,1,.41c.16.11.34.45.28.56s-.15.62-.58.59a3.14,3.14,0,0,1-1.45-.71c-.26-.17-.26-.18-.14-.57.23.22.45.42.66.64a1.2,1.2,0,0,0,1,.31c.08,0,.22-.07.24-.14s-.06-.19-.06-.21a1.81,1.81,0,0,1-.61.13c-.13,0-.24-.18-.35-.28l.08-.09.43.13c-.1-.43-.1-.43-.92-.61Z"/><path d="M23.82,73c-.1.1-.24.18-.29.29-.14.31-.25.33-.49.08-.07-.06-.16-.1-.18-.12l-.43.44-.27-.51-.14.18-.31.38a2.85,2.85,0,0,1-.46-.59c-.05-.1.09-.29.14-.44l.11,0,.25.5.34-.54.39.45.34-.49.42.36.37-.49c.26.08.27.26.2.49Z"/><path d="M31,84.76,27,85a6.41,6.41,0,0,1,4-.39Z"/><path d="M44.35,84.31s.07-.12.1-.12l1.11.06-.16-.36.64-.11-.13.51.65-.08-.1.66c-.57-.47-1.1-.11-1.71.09l.18-.37-.58-.29Z"/><path d="M41.88,81.11l-.53.44-.11-.08.21-.49-.32,0,.71-.67c-.06.63.09.78.7.74a3.73,3.73,0,0,1,.46,0c0,.56-.42.48-.74.65Z"/><path d="M22.24,72.24a.64.64,0,0,0-.24.1,1.79,1.79,0,0,0-.2.26l-.17-.27-.08-.12-.42.35-.19-.49-.1,0-.13.47a.76.76,0,0,1,.1-1.07l0,.44.1,0,.35-.43.05.64.46-.56.13.51.38-.5.13,0-.14.59Z"/><path d="M46.65,78.56c.14-.1.31-.3.41-.27s.3.25.44.39l0,.09.36-.06.06.08c-.15.13-.29.32-.47.37a5.16,5.16,0,0,1-.89.12c-.33,0-.66.09-1,.1a.75.75,0,0,1-.45-.18c.62,0,1.24-.08,1.86-.14.26,0,.29-.21.22-.45l-.43.09Z"/><path d="M45.59,77.57c-.18-.11-.29-.24-.39-.23s-.24.18-.23.25a2.94,2.94,0,0,0,.27.61c-.2.17-.44,0-.71-.11l.17-.22-.56-.31.7-.36-.25-.12a1,1,0,0,1,1,.24S45.6,77.49,45.59,77.57Z"/><path d="M44.25,78.49l1.22.06,0-.35.84-.12,0,.1-.17.18.33.15c-.09.06-.13.13-.18.13a5.38,5.38,0,0,1-2,0Z"/><path d="M38.36,83.33,38,83l.36-.18-1.2-.36v-.08l1.77-.1Z"/><path d="M40.07,81.54l0-.7.51-.31.18,1Z"/><path d="M37.59,81.59l-1,.71c0-.24-.13-.54,0-.69S37.11,81.27,37.59,81.59Z"/><path d="M41.53,77.23c.4-.36.68-.79,1.16-.33l-.31.55Z"/><path d="M23.66,70.76a.73.73,0,0,1,.79-.55s.06.16.05.23a2.25,2.25,0,0,1-.21.35,1.92,1.92,0,0,1,.39-.05.42.42,0,0,1,.24.09.22.22,0,0,1,0,.17.4.4,0,0,1-.24.09,5.72,5.72,0,0,1-.55-.22.6.6,0,0,0,.07-.2.5.5,0,0,0-.08-.2,1.21,1.21,0,0,0-.2.09Z"/><path d="M26.65,73.82l-.1-.27c-.08,0-.14.07-.21.09l-.3.07c0-.11-.05-.25,0-.32s.23-.18.29-.15c.39.19.76.42,1.14.64l0,.13Z"/><path d="M24.32,72.2c-.34.42-.57,0-.83-.16a1.28,1.28,0,0,0-.07.16,3.62,3.62,0,0,1-.2.33s-.16,0-.16,0a1.7,1.7,0,0,1,.09-.39,3.72,3.72,0,0,1,.2-.44l.95.55Z"/><path d="M8.08,63.1,7,65l-.12-.06,1-1.95Z"/><path d="M14,67.47l-1.46.91-.08-.14a3.07,3.07,0,0,1,1.46-.91Z"/><path d="M5.85,67.13a14.84,14.84,0,0,1-1.6,2.31l-.1-.07c.26-.38.51-.77.78-1.14s.48-.64.73-1a.8.8,0,0,1,.19-.13Z"/><path d="M25.79,74.61c-.09.34-.26.37-.52.21A3,3,0,0,0,25,74.7c-.08,0-.2-.1-.21-.17a.32.32,0,0,1,.11-.27.33.33,0,0,1,.27,0C25.34,74.38,25.55,74.49,25.79,74.61Z"/><path d="M23.73,73.54a8.14,8.14,0,0,1,.73.38.34.34,0,0,1,.05.31.34.34,0,0,1-.31.07,2.87,2.87,0,0,1-.49-.26C23.43,73.86,23.59,73.69,23.73,73.54Z"/><path d="M23.71,74.3c-.05.08-.07.17-.13.2a.36.36,0,0,1-.25,0,1.73,1.73,0,0,1-.47-.33c-.07-.08-.06-.24-.08-.36a.93.93,0,0,1,.33,0,2,2,0,0,1,.39.25A1.25,1.25,0,0,1,23.71,74.3Z"/><path d="M22.86,74.44l-.25.3a3.74,3.74,0,0,1-.61-.49c-.07-.07,0-.25,0-.39a1.06,1.06,0,0,1,.33.09A6.33,6.33,0,0,1,22.86,74.44Z"/><path d="M24,74.47c.25.12.5.24.74.38.06,0,.11.2.07.24s-.19.15-.26.12a2,2,0,0,1-.58-.3c-.08-.07-.07-.24-.11-.37Z"/><path d="M23.11,74.65a7.71,7.71,0,0,1,.7.46c.05,0,0,.21,0,.31a.6.6,0,0,1-.27,0,2.58,2.58,0,0,1-.53-.32.33.33,0,0,1-.1-.25C22.93,74.77,23,74.72,23.11,74.65Z"/><path d="M22.07,74.58c-.19.07-.34.18-.38.15a4.37,4.37,0,0,1-.54-.6s0-.19.07-.28.18,0,.23.07S21.82,74.31,22.07,74.58Z"/><path d="M22.74,75.66c-.15-.34-.79-.28-.64-1,.3.2.56.35.79.54.07.06,0,.25,0,.37Z"/><path d="M25.19,75.85c-.15.07-.27.17-.36.15a2.53,2.53,0,0,1-.64-.26c-.07,0-.07-.19-.11-.29s.2-.08.28,0a3.56,3.56,0,0,1,.61.25C25,75.68,25.07,75.75,25.19,75.85Z"/><path d="M24.51,73.26c.37.16.64.26.89.4a.32.32,0,0,1,0,.3.34.34,0,0,1-.31.05c-.08,0-.1-.17-.13-.22s-.35,0-.4-.06S24.53,73.46,24.51,73.26Z"/><path d="M21.27,74.65c-.16,0-.31.11-.34.07a3.09,3.09,0,0,1-.48-.6c0-.07.06-.22.1-.34a1.3,1.3,0,0,1,.26.17C21,74.15,21.08,74.36,21.27,74.65Z"/><path d="M24.19,76.18a.77.77,0,0,1-.33,0,1.58,1.58,0,0,1-.53-.23c-.09-.07-.12-.22-.17-.34.1,0,.21-.05.29,0,.26.11.51.25.77.37Z"/><path d="M25.87,75.65a7.39,7.39,0,0,1-.76-.17c-.05,0-.1-.19-.07-.22s.2-.18.29-.17a1.62,1.62,0,0,1,.54.17.32.32,0,0,1,.12.25C26,75.57,25.89,75.63,25.87,75.65Z"/><path d="M10.24,81.44l.78.8a.58.58,0,0,1-.73-.19,1.51,1.51,0,0,1-.2-.54Z"/><path d="M22.23,72.26a.77.77,0,0,0,.5-.8c.28,0,.41.13.28.38s-.34.54-.57.9c-.09-.23-.14-.36-.2-.5Z"/><path d="M25.72,71.37l.12-.3-.26.07a.9.9,0,0,1-.29,0s-.05-.2,0-.23a.54.54,0,0,1,.3-.1c.09,0,.17.07.25.1s.45.07.37.33c0,.09-.32.11-.48.15Z"/><path d="M32.06,74.25l-.45.31.4.32L32,75a5.24,5.24,0,0,1-.61-.34.37.37,0,0,1-.11-.32.48.48,0,0,1,.32-.15A2.79,2.79,0,0,1,32.06,74.25Z"/><path d="M21.33,74.73l.86.78-.08.08C21.41,75.4,21.09,75.34,21.33,74.73Z"/><path d="M46.74,72.1l1.65-.24,0,.13c-.54.17-1.11.2-1.64.38Z"/><path d="M24.57,76.14a5.55,5.55,0,0,1,.69.24c.06,0,.09.14.13.21s-.16.1-.23.09a3.28,3.28,0,0,1-.68-.19c-.06,0-.1-.16-.11-.24S24.5,76.17,24.57,76.14Z"/><path d="M25.59,75.84a4.54,4.54,0,0,1,.58.1c.07,0,.16.14.14.19s-.13.18-.19.18a4.26,4.26,0,0,1-.69-.15s-.1-.17-.08-.18A1.09,1.09,0,0,1,25.59,75.84Z"/><path d="M48.16,71.41l1.44-.25C49.44,71.58,49,71.69,48.16,71.41Z"/><path d="M26.79,71.82l-.36-.34c.1,0,.24-.17.3-.14a1.55,1.55,0,0,1,.44.37.52.52,0,0,1,0,.35s-.12.06-.19.09-.06-.2-.1-.3l0-.11Z"/><path d="M14.29,64.76c-.26-.51.12-.73.31-1,0,0,.18,0,.32,0Z"/><path d="M26.77,75.16a6.38,6.38,0,0,1-.7-.13s-.09-.2-.07-.21a.64.64,0,0,1,.32-.13,1.51,1.51,0,0,1,.47.09c.07,0,.17.15.16.17A1.08,1.08,0,0,1,26.77,75.16Z"/><path d="M25.25,70.51l-.36-.07c0-.07,0-.19.06-.2a2.85,2.85,0,0,1,.42,0,.4.4,0,0,1,.15,0l.32.17s0,.16-.06.16a2.32,2.32,0,0,1-.38,0,.35.35,0,0,1-.13-.08Z"/><path d="M24.61,76.83c.44.17.91,0,1.2.42A1,1,0,0,1,24.61,76.83Z"/><path d="M43.67,78.52l-.23-.41a3.77,3.77,0,0,1,.56-.24.82.82,0,0,1,.3,0,1.06,1.06,0,0,1-.16.21C44,78.26,43.85,78.37,43.67,78.52Z"/><path d="M26.05,77.24c.6-.25.78-.25,1,0C26.71,77.52,26.24,77.52,26.05,77.24Z"/><path d="M26.22,76.46l.45.25-.53.17a.24.24,0,0,1-.12,0l-.35-.21a3.84,3.84,0,0,1,.36-.14h.15Z"/><path d="M27.21,75.42c0,.29-.1.42-.36.35a1.45,1.45,0,0,1-.3-.06,1.11,1.11,0,0,1-.24-.16c.09-.06.19-.18.28-.18A3.24,3.24,0,0,1,27.21,75.42Z"/><path d="M38.08,75.11l-1.44-.3C37.09,74.58,37.91,74.72,38.08,75.11Z"/><path d="M27.5,77.63a.82.82,0,0,1-1,.18C26.88,77.49,27.22,77.43,27.5,77.63Z"/><path d="M20.86,72.66l.34,1-.13.1c-.1-.11-.24-.19-.28-.31S20.52,72.94,20.86,72.66Z"/><path d="M27.1,71a.45.45,0,0,1-.18.07c-.07,0-.2,0-.2,0,0-.24-.21-.23-.4-.22s-.12-.13-.19-.2.18-.18.21-.16a6.58,6.58,0,0,1,.74.4Z"/><path d="M26.85,76.35l-.23-.16c.08-.07.15-.17.24-.2a2.73,2.73,0,0,1,.5,0,.84.84,0,0,1,.2,0c0,.07,0,.19-.1.21A3.89,3.89,0,0,1,26.85,76.35Z"/><path d="M43.9,75.13v-.49l.38,0h.33l.25,0,0,.12a2.08,2.08,0,0,0-.5,0A2.47,2.47,0,0,0,43.9,75.13Z"/><path d="M26.68,70.29c-.27-.06-.56-.12-.83-.2,0,0-.07-.12-.06-.17s.08-.12.12-.12c.3.06.64.06.82.37Z"/><path d="M42.63,72.54l-.67.25v-.67Z"/><path d="M41.8,79.07l1-.35.06.14c-.21.38-.64.23-.92.42Z"/><path d="M27.79,72.12l-.55-.82.14-.1c.18.23.37.47.54.72A1.27,1.27,0,0,1,27.79,72.12Z"/><path d="M27,76.64l.9-.32c.07.34-.44.57-.86.44Z"/><path d="M47.23,83.88l.38,0,0,.64C47.2,84.55,47.18,84.51,47.23,83.88Z"/><path d="M51.27,70l-.5.6-.31-.26.32-.17.42-.24Z"/><path d="M46.45,75.7l1-.73.09.11a2.76,2.76,0,0,1-1,.73Z"/><path d="M27.69,71.08c-.23-.17-.45-.33-.65-.51,0,0,0-.25.05-.26C27.3,70.24,27.76,70.83,27.69,71.08Z"/><path d="M11.16,84.85c.07-.23.12-.47.21-.69,0,0,.18,0,.28,0a.9.9,0,0,1,0,.24c-.1.19-.22.36-.33.54Z"/><path d="M25.44,69.94h-1c.08-.11.14-.27.21-.27a6.83,6.83,0,0,1,.78.06Z"/><path d="M24.5,69.48l-.18.06a2.44,2.44,0,0,1-.27,0c.06-.09.11-.21.19-.24a1.09,1.09,0,0,1,.45-.08,1.15,1.15,0,0,1,.29.08l-.27.21A1.42,1.42,0,0,1,24.5,69.48Z"/><path d="M44.61,81.93l.32-.13-.32-.18.57-.14c0,.2,0,.42-.07.47s-.32.06-.49.09Z"/><path d="M28.39,72.17l-.47-.89c.46,0,.44.41.61.64C28.55,71.94,28.46,72.06,28.39,72.17Z"/><path d="M24.18,70l-.92.38c0-.32.41-.55.87-.5Z"/><path d="M27.41,70.18l-.82-.45.11-.19.82.43Z"/><path d="M28.36,75.08c-.05.31-.05.31-.76.48C27.6,75.4,27.6,75.4,28.36,75.08Z"/><path d="M25.35,69.47c.39-.3.8-.22,1,.17Z"/><path d="M33.93,79.36l.94.11C34.47,79.91,34.22,79.47,33.93,79.36Z"/><path d="M60.79,63.73c.25,0,.52,0,.58.26,0,.14-.09.32-.15.48l-.13,0,.06-.3c-.12-.14-.23-.28-.35-.41Z"/><path d="M28.38,71.18l-.73-.85A.78.78,0,0,1,28.38,71.18Z"/><path d="M28.19,76.68c.07.29-.35.56-.82.45Z"/><path d="M37.26,77.76l.33.25v-.45c.14.15.27.26.26.28s-.22.34-.34.35S37.18,78,37.26,77.76Z"/><path d="M24.3,72.21c.43.11.52.23.35.5,0,.07-.16.1-.24.15a.72.72,0,0,1-.16-.28,1.33,1.33,0,0,1,.07-.38Z"/><path d="M35.8,79.14l-1.15-.36,0-.11,1.16.3Z"/><path d="M59.73,59c.12,0,.28,0,.36.08.25.24.47.5.7.75l-.07.07-1-.91Z"/><path d="M25.12,72.56c.15.14.29.3.06.5-.06,0-.19,0-.29,0l.07-.54Z"/><path d="M27,69.45l-.81-.33.05-.12a.85.85,0,0,1,.82.32Z"/><path d="M25.56,73.59c-.09-.18-.19-.29-.17-.33a1.44,1.44,0,0,1,.27-.33c.07.07.2.17.19.22A2,2,0,0,1,25.56,73.59Z"/><path d="M39.49,74.85l-.9-.27.06-.18.9.31Z"/><path d="M28.7,77.09l-.82.58A.75.75,0,0,1,28.7,77.09Z"/><path d="M44.91,75.05c.23-.19.3-.64.79-.45l-.71.58Z"/><path d="M24.48,69l-.77.3c0-.28.31-.44.73-.41Z"/><path d="M39,82.82l.55.31a1.17,1.17,0,0,1-.41.14c-.1,0-.21-.13-.28-.23s.1-.14.15-.21Z"/><path d="M29.11,77.25,28.3,78C28.43,77.45,28.72,77.2,29.11,77.25Z"/><path d="M23.81,73c.2-.1.41-.27.55,0a.36.36,0,0,1-.14.3c-.3.09-.32-.18-.4-.36Z"/><path d="M28.06,70.16l-.64-.54.12-.14.66.53Z"/><path d="M27.9,72.89a4.82,4.82,0,0,1-.51-.38s0-.16,0-.24.2,0,.25.07a4.43,4.43,0,0,1,.29.46Z"/><path d="M28.75,71.32l.31.84-.16.06-.33-.82Z"/><path d="M22.89,70c0-.23.35-.49.81-.43Z"/><path d="M49.76,70.82l.83.18-.68.22Z"/><path d="M44,79.09l.23.44c-.09,0-.25.08-.27,0a2.07,2.07,0,0,1-.14-.42Z"/><path d="M5.85,67.14a1.24,1.24,0,0,1,.5-1l.11.06c-.2.3-.41.59-.61.88Z"/><path d="M28.9,71.19l-.49-.72.13-.09c.32.12.3.49.49.71Z"/><path d="M27.7,69.36,27,69l.1-.17.67.39Z"/><path d="M25.89,73.77c.12.15.25.25.23.3a.62.62,0,0,1-.25.23s-.19-.12-.18-.17S25.79,73.94,25.89,73.77Z"/><path d="M48.66,82.5c0-.32.32-.4.63-.49Z"/><path d="M26.56,68.82l-.78-.19,0-.17.79.16Z"/><path d="M25.24,68.57l-.77.09,0-.15.75-.16Z"/><path d="M46.77,82.65l-.7,0C46.28,82.32,46.39,82.31,46.77,82.65Z"/><path d="M24.94,68.84h.84V69h-.84Z"/><path d="M29.09,71.45c.49.23.23.62.37.87l-.1,0Z"/><path d="M47.27,77.09l.57-.72.1.07-.56.73Z"/><path d="M37.34,80.61l-.56-.27,0-.12.6.2Z"/><path d="M28.64,75.66l-.74.39c0-.51.5-.28.65-.53Z"/><path d="M47.22,71.46l.6,0v.16l-.61,0Z"/><path d="M32.32,76.56l.55.35,0,.1-.6-.29Z"/><path d="M46.6,76.41l.74-.1,0,.18c-.24.26-.51,0-.76-.08Z"/><path d="M48.36,76c-.13.1-.21.2-.26.19a.87.87,0,0,1-.25-.19c.06-.05.12-.16.17-.15S48.2,75.94,48.36,76Z"/><path d="M28.19,76.27l.61-.39.06.07-.56.47Z"/><path d="M47.74,83.71h.68v.12C48.22,83.74,48,84.13,47.74,83.71Z"/><path d="M25.72,71.37l.76.56L26.4,72c-.22-.22-.68-.16-.68-.65Z"/><path d="M39.68,76c-.06-.18-.12-.26-.1-.32a.87.87,0,0,1,.17-.22c0,.06.16.13.15.18A1.31,1.31,0,0,1,39.68,76Z"/><path d="M26.74,74.28a1.81,1.81,0,0,1-.34.24s-.15-.16-.13-.18a.82.82,0,0,1,.25-.24S26.63,74.19,26.74,74.28Z"/><path class="cls-4" d="M.71,84c.08.12.16.2.14.26s-.11.14-.17.21-.17-.14-.17-.21S.62,84.09.71,84Z"/><path class="cls-4" d="M47,34.89c-.05-.1-.06-.23-.14-.28-.28-.19-.58-.35-.88-.52l.07-.15.73.27-.19-.52a1.38,1.38,0,0,1,.47,0,6,6,0,0,0,1.88.63c.33.07.65.18,1,.27l0-.13-.55-.16v-.06a4.17,4.17,0,0,0,.8-.11,2.47,2.47,0,0,0,.92-.45,2.4,2.4,0,0,1,1.46-.64,2.31,2.31,0,0,0,.46-.16v.42l.89-.11-.08.25.38,0-.15.29.34,0-.26.32.47-.05c-.4.53-1,.13-1.43.57h1.67c.55-.68.53.42,1,.39l-.44-.74h.52c0-.29-.09-.55-.15-.82a.32.32,0,0,1,.33-.42c.27,0,.23.2.22.4a.61.61,0,0,0,.36.7v-.48l.31.46c-.06-.42.3-.78.06-1.23s.21-.34.47-.35c0-.06,0-.13,0-.18s.11-.23.17-.35a1.45,1.45,0,0,0,.19.29l1,.9-.67.08.38.75.14-.16.12,0c-.07.22-.09.58-.22.62-.51.15-.47-.36-.64-.66l-.38.11L58,35l.32-.13c.11.3.11.3-.23.36l.23,1.22-.08,0a1.57,1.57,0,0,0-.24-.21.77.77,0,0,0-.27,0,2,2,0,0,0,0,.26,5.62,5.62,0,0,1,.3.73c0,.1-.09.28-.19.34-.49.32-.52.6-.07,1,0,0,.07.08.07.21l-.58-.13.47.55L57,40.41l-.37-.19.2.53c-.19.06-.39.11-.58.18a.33.33,0,0,0-.15.11c-.14.18-.28.18-.38,0s-.16-.22-.32-.09a9,9,0,0,1-.81.7,5,5,0,0,1-.81.46c-.09,0-.24,0-.37-.08l0-.13.45-.1v-.1h-.42l.08-.52a2.19,2.19,0,0,0-.41.16c-.27.21-.49.35-.85.1-.2-.14-.55-.08-.85-.11l0-.3-.59.11.57-.81c-.54-.18-1-.3-1.46-.5a5.45,5.45,0,0,1-1-.64c-.25-.19-.44-.45-.69-.64-.45-.35-.93-.65-1.39-1s-.91-.74-1.38-1.13l-.25.19A3,3,0,0,0,46.64,38a6.29,6.29,0,0,1,1.11.53c-.57.15-1-.25-1.46-.46a2.75,2.75,0,0,0,.35.73A4.18,4.18,0,0,0,48,40c.35.14.8.27,1,.55.32.51.92.58,1.27,1l.09.08c.46.23.46.23.18.73l.62.14-.28-.26.19-.51h.78a1,1,0,0,0,0,.39c0,.1.2.15.34.25l-.14.24h.38l-.15.32c-.37-.06-.37-.06-.5.13l.43.43-.46.28.33.17-.3.69-.65-.84c.5-.09.7-.25.43-.65-.06-.09,0-.27,0-.47a1.86,1.86,0,0,1-1.4-.13l.29-.57-1,.19,0-.12.55-.32-.12-.26-.88.25v.06l.43.05-.35.28,1.54,1.34,0-.49.1-.06.47.67-.53,0L52.45,47l.08,1.64a1.82,1.82,0,0,1,.55.23c.14.1,0,.25-.21.18s-.08-.07-.13-.09l-.16-.06-.44.79c.33,0,.5.27.66.6a3.34,3.34,0,0,0,.74,1,3.39,3.39,0,0,0,.85.43l0,.13h-.69v.1l.66.13c-.33.23-.59.47-.12.85H53.3l.55.68-.19.21-.37-.26-.06,0a2.12,2.12,0,0,1,.11.21c.07.15.12.29.18.44H53s0,.08,0,.11a3.05,3.05,0,0,0,.49.38c.28.18.33.37.05.7-.14-.16-.27-.3-.41-.44a.69.69,0,0,0-.19-.1c0,.07-.12.16-.1.22s.17.32.24.48a.81.81,0,0,1,0,.27c-.09,0-.22-.06-.24-.12-.11-.33-.19-.66-.28-1a1.47,1.47,0,0,0-.08-.28.29.29,0,0,0-.13,0,1.33,1.33,0,0,0,0,.28c0,.22,0,.44,0,.65a2.79,2.79,0,0,0,.07.4,3.61,3.61,0,0,1-.4.48.38.38,0,0,1-.33.07.76.76,0,0,0-.81,0,.75.75,0,0,1-.44.08c-.54-.09-1.07-.22-1.6-.32a1.9,1.9,0,0,0-.51,0s0-.14-.13-.16a6.91,6.91,0,0,0-2.56-.46A12,12,0,0,1,44,55.43a1.5,1.5,0,0,0-.42,0,2.16,2.16,0,0,1-1.53-.28l-.12,0-.1,0,0,.6-.39-.43a1.16,1.16,0,0,1-1.07-.38c-.34-.33-.59-.18-.71.35a1.73,1.73,0,0,1-.4-1l.32.21,0,.1.67-.07c-.43-.27-.43-.29,0-.6l-.38-.41c-.12.16-.21.25-.27.35s-.17.29-.25.43c-.41-.29,0-.37.1-.49v-.46l-.21-.25.32-.18.24.4.12-.06c-.13-.41-.23-.84-.39-1.24a1.82,1.82,0,0,0-.95-1,3.71,3.71,0,0,1-.83-.66c-.08-.07-.09-.23-.19-.3s-.24-.19-.23-.28a.83.83,0,0,0-.32-.63,4.36,4.36,0,0,1-.51-.7l-.25.38L35.83,48c-.55,0-.7-.11-.67-.47-.34-.49-.8-.83-.79-1.44v-1.7c-.41-.34.3-.59.16-.94h.12l-.09.74.07,0,.38-.71-.74-.78-.4.07c.34-.45.8-.5,1.26-.74l-.73-.2,1-.64-.25-.36-.88.51,0-.37-.07-.09-.78.69-.07-.44-.51.48.48.26-.16.24c-.39-.38-.4-.37-.81.3a4.45,4.45,0,0,0-.62-2.15h0c-.21-.42.23-.43.44-.62l-.69.07.12-.56-.13-.1.43-.26a2.7,2.7,0,0,1-.78-.11c-.14-.06-.19-.29-.33-.52l-.27-.1c.09-.35.24-.45.62-.38a8.93,8.93,0,0,0,1.86.15c.27,0,.54-.27.8-.41l0-.1c-.38.09-.76.2-1.14.27a.9.9,0,0,1-.51-.06c-.26.11-.52.23-.8,0l.28-.53c-.62-.12-1-.43-1.07-.85l.28-.21,0-.08-.82.37L29.9,36,31,35.38c-.43-.09-.83-.12-1.1-.52a2.46,2.46,0,0,1,.46.08.64.64,0,0,0,.72-.15c.23-.22.46-.27.64-.13.18-.09.31-.21.43-.19a2.22,2.22,0,0,1,1.11.23c.23.16.62.08.94.12l.57.11,0,.19-1.3.85a.65.65,0,0,0,.89-.18,1.32,1.32,0,0,1,1.35-.27c-.13.16-.34.31-.36.49s.14.38.24.6c.06-.07.09-.09.09-.11s-.2-.43-.14-.51c.24-.29.4-.7.86-.74l1.82-.17c.43,0,.52.06.62.51.07.3.19.6.29.92-.46.05-.55.26-.49.78l.86.8a5.26,5.26,0,0,1,.25-1.1.59.59,0,0,0-.14-.76,1.61,1.61,0,0,1-.15-.28l.55-.13a2.2,2.2,0,0,0,0-.45c-.05-.32.21-.59.08-.92s.19-.39.41-.26a5.18,5.18,0,0,1,.76.62c.07,0,.25,0,.43-.05.41,0,.83,0,1.24,0s.86,0,1.29.07a.54.54,0,0,1,.28.2,5.87,5.87,0,0,0,2.92,2,9.08,9.08,0,0,1,1.42.73c.24.13.48.23.73.35l-.6.06,1.87.52-.45-.64.38,0a1.43,1.43,0,0,0-.22-.14,5.3,5.3,0,0,1-1.72-.8c-.46-.22-1-.38-1.42-.57a.81.81,0,0,1-.27-.16,6.59,6.59,0,0,0-1-.77,3.41,3.41,0,0,1-.67-.93c-.2.27-.36,0-.51-.17A.64.64,0,0,1,46,34.29a5.12,5.12,0,0,0,1,.59l2.16.94.05-.12c-.5-.2-1-.41-1.49-.6C47.48,35,47.23,35,47,34.89Zm-4.28,1.46,0-.19.26,0-.32-.44c-.31.43-.3.51.1.64-.36.52-.36.64.09.85L42.76,37l.35-.28-.06-.08-.27.13Zm-4.88,3.76.81.39c.16-.21.37-.43.54-.69a.54.54,0,0,0,0-.43c0-.08-.3-.16-.36-.11-.36.26-.69.56-1,.85-.28,0-.56,0-.65.38l.89-.15Zm-1.33,6h0a1.66,1.66,0,0,1,.13.27c.12.39.07.88.58,1.06,0,0,.06.08.08.13l.37,1a1.42,1.42,0,0,1,.5,0,3.63,3.63,0,0,1,.65.42c-.11-.45.13-.41.34-.4a1.38,1.38,0,0,0,.82-.09c.22-.11.56,0,.85,0a1,1,0,0,0,.42-.07c.23-.1.41,0,.4.25s0,.56-.06.88l.93,0c.09-.23.18-.47.28-.71a4.58,4.58,0,0,0,.28-2.71c0-.08.11-.19.2-.32.25.94.48,1.77.72,2.6,0,.11.12.27.21.28.42.09.53.42.65.76s.21.43.32.65l.16-.06a3,3,0,0,0-.12-.43,1,1,0,0,1,.25-1.23l-.06-.22A2.53,2.53,0,0,1,46,48a4.72,4.72,0,0,1,.69.12l0,.38,1.67-1.05v.12l.51.25.29-.68c.39,0,.36-.25.2-.59l.47.08-.69-1.45.09-.11a1.86,1.86,0,0,1-.62-.28c-.37-.33-.59-.85-1.25-.76s-1.21,0-1.8.11c-.42,0-.83.19-1.25.28l-.12,0,.09.2L44,44.43c0,.2,0,.44-.13.58a.77.77,0,0,1-1.34-.09.7.7,0,0,0-.38-.3c-.46-.1-.83-.51-1.36-.38,0,0-.08-.05-.13-.08l-.84-.67-.4.45,0-.12-.83-.12a1.84,1.84,0,0,1-.16.31c-.11.17-.18.13-.23-.14l-.83.39-.08-.1,0,.39a2.62,2.62,0,0,0-.8.41,2.91,2.91,0,0,0-.46.75c.43-.13.18.43.41.54Zm6.72-5.38-.4.18-.07-.09.33-.35L42,40.32a2.29,2.29,0,0,1,.13-.2l.12-.1c-.34-.25-.39-.22-.63.09a2.69,2.69,0,0,1-.61.55c-.2.14-.34,0-.38-.2s0-.16,0-.24h-.11c0,.1-.1.23-.06.31a.84.84,0,0,0,.83.66l.36-.57h.12c0,.15.15.31.1.43a.89.89,0,0,0,.1.89c.05.07,0,.21,0,.31s-.11.15-.09.19a9.21,9.21,0,0,0,.62,1.26.6.6,0,0,0,.55.13,7,7,0,0,0,1-.57l-.63-.91.4-.17-.29-.23C44.07,41.39,43.27,41.16,43.22,40.72Zm-9.11-.8.1-.05a1.53,1.53,0,0,1,0-.34c.57-.09.6-.61.8-1a5.77,5.77,0,0,1,.47-.74c.24-.34.51-.65.75-1a2.19,2.19,0,0,0,.18-.46l-.19.11c-.43.53-.86,1.07-1.3,1.59A2.85,2.85,0,0,0,34,39.52,1.44,1.44,0,0,0,34.11,39.92Zm2.14,1.22.69-.53c-.23-.34-.67-.27-1.43.25l.42.42.16-.27.11-.07Zm20.29-1.42c.07-.08.11-.1.12-.13s.16-.23.16-.34-.16-.13-.25-.2a2.68,2.68,0,0,0-.18.33c-.14.35-.27.71-.41,1.06a1.07,1.07,0,0,1-.15.22l.05.05,1-1ZM41.78,51.39l-.22-1.66c-.28.23-.3.35-.09,1.29C41.5,51.16,41.67,51.26,41.78,51.39Zm4.8-11.81-.09.08c.43.38.42,1.08,1,1.41l.08-.48-.09.07ZM35,42.33a2.9,2.9,0,0,0-.16.47c0,.07.06.15.09.22s.16-.07.17-.11c0-.45.28-.57.71-.39C35.63,42.19,35.63,42.19,35,42.33ZM32.88,35l0-.15-1.44.41,0,.11Zm12,5.55v.14l1.19.12v-.15Zm9.64.25.13.11.69-.8-.11-.1Zm-8.65-1.57.11-.08-.74-1-.1.07Zm8.93-3.78.38-.53-.09-.07-.22.24-.34-.19-.07.09Zm-5.91-.62-.34.18v.06h1V35Zm8,.22.14-.05a1.56,1.56,0,0,0-.12-.4,1.37,1.37,0,0,0-.31-.27l0,.09Zm-2.2,6.32-.06-.18-.81.27,0,.1Zm-22.61-1c.41.16.44.14.45-.42ZM31.53,38l-.14-.08-.2.47C31.67,38.45,31.48,38.13,31.53,38Z"/><path class="cls-4" d="M32,26.37a1.27,1.27,0,0,1-1-.75l-.22.09-.06-.06a1.55,1.55,0,0,1,.31-.36c.1-.07.26,0,.4,0s.38.1.41.06c.2-.34.51-.21.84-.3l-.47-.22.18-.16-.66.08.19-.32c.18.07.4.18.61-.11,0-.07.34,0,.51,0a.58.58,0,0,0,.27,0l-.22-.25a1.82,1.82,0,0,1,.68,0,.9.9,0,0,0,.83-.15.52.52,0,0,1,.73.14,1,1,0,0,0,.3.26,15.2,15.2,0,0,1,2.3.41l-.2-.15,0-.09a1.64,1.64,0,0,1,.41.24c.27.33.62.22.93.15.1,0,.15-.24.22-.35l-.72-.05.17.19-.68-.12.33-.29-.62.1,0-.08.63-.34a6.26,6.26,0,0,1-1-.28.59.59,0,0,1-.19-.51,2.91,2.91,0,0,1,.33-.73c.36.22.7.88,1.18.13l.32.17.13-.39c.09.14.14.34.26.4a.32.32,0,0,0,.51-.15c.06-.11.32-.11.55-.18l.17.69h.41l0-.36c.24,0,.48-.23.59.29l.29-.89.12,0c-.12.42-.11.78.35,1,.22-.34.61-.32,1,0,.16-.1.32-.21.49-.3a1.23,1.23,0,0,1,.32-.07,4.36,4.36,0,0,1,.51,0c.08,0,.2,0,.25,0,.36.32.65.1,1-.05a2.35,2.35,0,0,1,.71-.07l.07.4.33-.52.06.27,1-.22.21.31.68-.6a9.47,9.47,0,0,0,.94-.76c.15-.16.53-.11.88-.17l-.27.36,0,.11.85-.36,0,.06-.27.4a2,2,0,0,0,.44-.05A2.11,2.11,0,0,0,52,21.7l.1.14-.71.51-.43.33c-.38-.06-.28-.37-.31-.77-.33.43-.49.93-1.07.75l0,.49L51,22.67c.42-.17.86-.31,1.26-.52.15-.07.23-.27.33-.42s.19-.26.3-.42c.11.25.11.25-.3.7l.48,0a.38.38,0,0,1,.24.06.4.4,0,0,0,.69-.15c.06-.13.14-.25.21-.38l.1,0-.13.34c.24.14.49-.49.71.05l.91-.63.07.06-.44.41.06.1.75-.39.08.07-.41,1,.1.07.68-.56.08.08-.19.28-.11.08.3.36,0-.14-.16.84.08,0,.28-.26c0,.06.07.12.06.14-.22.32,0,.57.21.72s.13.29,0,.45-.18.23-.15.29c.16.36,0,.51-.37.63a1,1,0,0,1,.17.19l-.5.64-.33.44.82.89-.07.08-1.33-.63.32-.1-1.15-.34,0,.05L55,27l0,.09a1.61,1.61,0,0,1-.5-.14,1.9,1.9,0,0,0-1.67-.16,2.18,2.18,0,0,1-1.36,0,1.22,1.22,0,0,0-.54-.07l.4.27a22.77,22.77,0,0,0-4.74.4l.3-.47c-.33-.5-.69-.49-1.5-.21a1.4,1.4,0,0,0,.46,0c.45-.17.45-.18.78.39a8.32,8.32,0,0,0-.94-.06c-.18,0-.36.09-.58.09l.3-.19c-.47,0-.83.53-1.41.18L44.7,27v-.09c-.44,0-.88-.08-1.33-.06-.26,0-.51.18-.78.21a1.76,1.76,0,0,1-.77-.13l1.11-.09-1.58-.26a.6.6,0,0,0-.23,0s-.06.08-.13.2l-1-.13h0c-.42,0-.86.06-1.2-.3,0,0-.2.05-.33.09.32.51.79.38,1.2.46A1.9,1.9,0,0,1,40,27c.25.09.49.2.78.32l-.38.17c-.47-.66-1.26-.37-1.85-.66a3.6,3.6,0,0,0-2-.22c.16.21.66.27.35.67l-1.12-.24,0-.18-.23,0a2.4,2.4,0,0,1-.6,0,4.48,4.48,0,0,1-.69-.27,4.66,4.66,0,0,0-1.93-.18,1.44,1.44,0,0,1-.4-.09l.54-.11v-.09L31.83,26Zm23.21-4.15,0,.06.23,0-.57.51c.79-.3.87-.39.8-.74ZM38.54,25.7l.05-.15-1.05-.27,0,.12Z"/><path class="cls-4" d="M41.5,16.93c-.36.24-.57,0-.77-.23-.5-.59-.73-.59-1.37-.13a2.41,2.41,0,0,1-.71.25c-.5-.47-.8-1.05-1.56-1.12a9.5,9.5,0,0,1-1.79-.5l.44-1.15c-.56-.17-1.13-.36-1.72-.51-.25-.06-.41-.09-.25-.38a.27.27,0,0,0,0-.19.51.51,0,0,1,.25-.63c.18-.12.26-.29-.06-.37a.32.32,0,0,1-.17-.22.36.36,0,0,1,.16-.23,3.68,3.68,0,0,1,.73-.45.8.8,0,0,1,.49.07c.11,0,.19.15.36.29l0-.5h.9c.26-.33-.15-.45-.28-.75h.48a.92.92,0,0,0,.45-.05c.32-.2.51-.17.57.19l.63-.06A3.15,3.15,0,0,1,38,9.74s.18-.14.22-.17a2.62,2.62,0,0,0,.4.41c.06,0,.2-.09.36-.16l.16.39.41-.21-.34-.56c.4.13.65.12.78-.23,0-.07.26-.06.43-.09l.1-.48c.26.43.54.66,1,.43l.07.1-.35.48.73,0v.15A1.42,1.42,0,0,1,40.6,10c.16.21.22.47.6.41.13,0,.32.25.47.4a.84.84,0,0,0,1.07.18c.23-.12.43-.3.66-.41a2,2,0,0,1,.5-.1l.53-.06-.76-.53c.5-.47.7.24,1.1.16,0-.21-.44-.41,0-.65.11.18.12.53.46.36a3.81,3.81,0,0,0,.5-.4c-.08.43-.65.78-.24,1.35l-.31-.06s0,.07,0,.08a2.19,2.19,0,0,0,.42.28c.07,0,.18-.1.27-.13a3.52,3.52,0,0,1,1-.21,3.6,3.6,0,0,1,1.84.41.46.46,0,0,0,.7-.21.42.42,0,0,1,.37-.11c.24.07.46.23.7.28s.28-.11.47-.19a.46.46,0,0,0,.66,0c.06,0,.17,0,.26,0s.41.14.62.22a1.21,1.21,0,0,1,.2.14c0,.07-.09.18-.16.2-.46.15-.93.3-1.4.41s-.46.24-.21.55.39.29.25.59c0,0,.11.15.18.16a.37.37,0,0,0,.28-.08c.13-.1.24-.22.44-.41a6.1,6.1,0,0,1,0,.77c0,.07-.19.2-.22.18-.37-.2-.72,0-1.07,0s-.62-.08-.93-.09l-1.71-.06a7.39,7.39,0,0,0-.94,0c-.59.06-1.19.16-1.78.25-.06,0-.11.14-.19.24-.62-.26-1.12.18-1.7.44.07,0,.15.09.22.08.36,0,.72-.09,1.07-.16a3.89,3.89,0,0,0,.92-.24,1.26,1.26,0,0,1,1.25.13,1.41,1.41,0,0,0,1.51.09c-.17.68-.79.3-1.09.61l0-.28H46.8c0,.06,0,.11.06.12.2.08.36.2.2.4s-.27.33-.49.06c-.06-.07-.29,0-.44,0a1.7,1.7,0,0,0-.41.15v.34l.42-.14.06.12-.85.46,0,.1,1.08-.21,0,.12-.58.31.34.21.36-.4.26.7c-.36-.2-.66.3-1-.1,0,0-.17,0-.25,0a6.36,6.36,0,0,0-.62.19.25.25,0,0,0-.15.11c-.21.57-.84.71-1.2,1.22.64.22,1.19-.1,1.87-.25l-.23.29c0,.07-.07.15-.14.28H44.9c.32.72-.37.87-.74,1.27L44,19.49l-.48.35a.35.35,0,0,1-.21.07c-.35-.08-.74.05-1.05-.23-.06-.05-.21,0-.32,0l-.38.09-.09-.13.41-.32c-.22-.11-.31-.25,0-.45l-.6-.39,0,.28s-.09,0-.12,0l-.35-.24-.28-.19a3,3,0,0,1,.24-.26.48.48,0,0,1,.18-.07l0-.13-.42,0a.22.22,0,0,1,0-.1,1.33,1.33,0,0,1,.93-.61c.08,0,.15-.12.23-.18ZM44,16.2l.11,0L44,17l1-.37-.28-1-1-.09.13.28-.37.27s.07.12.11.17c-.24.15-.2.3.09.48Zm-5.64-1.38L38,14.74a5.38,5.38,0,0,1-1.69-.46c-.07-.06-.27,0-.38.08a1.57,1.57,0,0,0-.3.37c.1.06.21.18.34.18.34,0,.69,0,1-.05a.31.31,0,0,1,.21.07c.21.2.42.25.64,0l.34.26Zm-2.5-2.75a1.14,1.14,0,0,0-.07.34.31.31,0,0,0,.22.16,4.47,4.47,0,0,0,.64-.14L36.7,12Zm3.77,3-1-.22,0,.11a4.34,4.34,0,0,1,.49.35C39.27,15.49,39.43,15.45,39.59,15Zm3.24,4.15c.28-.19.69-.29.58-.79-.12.12-.17.31-.29.39a1.29,1.29,0,0,1-.51.1Zm6.5-6.73,0,.17.62.12c0-.07,0-.16,0-.2A.4.4,0,0,0,49.33,12.46ZM44.91,11a.71.71,0,0,0-1,0Zm-1.53,7-.16-.14-.45.52.15.13ZM50.48,13a1.28,1.28,0,0,0,.2-.32s-.14-.14-.21-.14-.21.11-.2.15S50.37,12.89,50.48,13Zm-8,1.41a.61.61,0,0,0,.82,0l0-.11ZM38,12.72l-.28.24c.07,0,.15.16.21.15s.16-.12.23-.2S38,12.8,38,12.72Z"/><path class="cls-4" d="M50.06,61.12l-.48-.24.05-.12.38.08c-.16-.63-.66-1-1-1.61l-.19.6a1.64,1.64,0,0,1-.48,0,1.94,1.94,0,0,1-.06-.53l-.43.22-2.25-.39c.12-.47,0-.61-.55-.55a5.61,5.61,0,0,1-.82,0,1.62,1.62,0,0,0-.62,0l-.34-.3-.08.26-1.13-.08.39-.14c-.45-.3-1,0-1.38-.36l.18-.36h-.34c0-.23,0-.37-.41-.3a3.71,3.71,0,0,1-1.08-.13V57.1c.27-.05.54-.12.81-.15A15.51,15.51,0,0,1,44,56.79c1,.15,2,.23,3,.33l3.16.32,1.74.16a3.6,3.6,0,0,1,.45.17l-.63.23.87.47-.78.07.26.92c-.51-.08-1-.62-1.56-.21.06.19,0,.47.34.57.08,0,.11.21.1.36-.26-.18-.67-.14-.67-.63,0-.1-.39-.21-.6-.31l-.09.13a8.4,8.4,0,0,0,.85.73c.31.21.14.46.1.69s-.13.2-.21.32l.29.09-.16,1.09-.17-.45-.45.08Z"/><path class="cls-4" d="M48.31,64.12l-.51.3,0-.08a1.92,1.92,0,0,0,.34-.6,2.21,2.21,0,0,0-.15-.73l.18-.06-.42-1.59,0,0,.3.51.08,0-.24-1,.1,0,.51,1,.33-.14-.2-.22.3-.21c.23,0,.3.73.65.1l.1,0-.08.84-.58-.2L49,62l.5.37.31-.25c.09.2,0,.5.44.45.13,0,.31.33.47.51l-.08.08-.37-.1-.07.06L51,64.32l-.38,0-.07.37c-.14-.08-.29-.12-.36-.21-.3-.43-.57-.87-.85-1.3l-.19.09a1.54,1.54,0,0,0,.2.43,1.17,1.17,0,0,1,.29,1.41c-.41-.3-.41-.3-.3-.89l-.28-.07-.2-1-.39.31a4.46,4.46,0,0,1-.2,2.34h-.12a.49.49,0,0,1,0-.16,2,2,0,0,1,.06-.31l-.51.4-.33-.85.09,0,.26.43.69-1.11Zm1.75-.68-.11.09.51.69.15-.12Z"/><path class="cls-4" d="M62.84,34.86c-.05-.14-.19-.35-.14-.44a2.68,2.68,0,0,1,.56-.65,1.44,1.44,0,0,1,.54-.3,3,3,0,0,1,.68,0,2.86,2.86,0,0,1,.08.67c0,.47-.12.93-.17,1.4a5.29,5.29,0,0,0,0,.89A2.24,2.24,0,0,1,64,37.61c-.17-.22-.29-.38-.43-.53s-.27-.25-.48-.44l.5-.14-.87-.56.21-.19a6.26,6.26,0,0,1-.42-.63A2.31,2.31,0,0,1,62.84,34.86Z"/><path class="cls-4" d="M22,78.89c.12-.29.23-.58.37-.86s.39-.25.69,0a10.66,10.66,0,0,1,.89.77c.53.52,1.05,1.06,1.57,1.6.07.06.08.18.11.27l-.09,0-.2-.26a.78.78,0,0,1-1.06-.59l-2.29-1Z"/><path class="cls-4" d="M20.22,76.42c1.34-.49,4.74,1.42,5.09,2.9A28.79,28.79,0,0,0,20.22,76.42Z"/><path class="cls-4" d="M62.9,31.21l-1.08-1.84c.32.05.49.25.78.91a.54.54,0,0,0-.14-.88c-.35-.17-.26-.5-.34-.77,0,0,.1-.09.15-.14a1.21,1.21,0,0,1,.14.2c.09.17.12.4.26.5s.43,0,.46-.25c0-.14.06-.27.1-.5a8.59,8.59,0,0,1,.43.77.45.45,0,0,1,0,.34c-.19.52-.41,1-.62,1.54A.89.89,0,0,1,62.9,31.21Z"/><path class="cls-4" d="M62.35,39.93l.32-.06c.12-.53.21-1,.34-1.42a2.73,2.73,0,0,1,.26-.51,4.89,4.89,0,0,1,.45.46c.32.44.29.65-.1,1a1.5,1.5,0,0,0-.33.42C63,40.45,62.71,40.55,62.35,39.93Z"/><path class="cls-4" d="M64.87,29.49a4,4,0,0,1,0,2.71l-.22,0a1.81,1.81,0,0,1-.22-.52c-.06-.54-.08-1.09-.11-1.64S64.31,29.57,64.87,29.49Z"/><path class="cls-4" d="M49,33.74l.19-.17-.69-.09.11.25-1.38-.1,0-.15a9.08,9.08,0,0,1,1.14-.2c.41,0,.83.06,1.24.07.16,0,.4.1.44-.21,0,0,.18-.08.3-.12v.25l.94-.26-.12.32Z"/><path class="cls-4" d="M55.22,72.53l.41-.27c.12.17.33.34.32.52s-.34.4-.79.26l.18.36c-.4-.07-.51-.27-.36-.66l-.32,0,0-.13Z"/><path class="cls-4" d="M42.56,10.44l-.86.14c.08-.12.1-.2.14-.21.3-.1.34-.33.39-.59a.78.78,0,0,1,1.05-.44l.32.18,0,.11a2.08,2.08,0,0,1-.36-.05c-.39-.18-.51-.11-.57.31,0,.09-.11.18-.13.27A.75.75,0,0,0,42.56,10.44Z"/><path class="cls-4" d="M52,71.13l-.19-.31.93-.19c.29-.07.64,0,.77-.42,0,0,.15,0,.23,0s0,.23,0,.25c-.35.19-.56.62-1,.59,0,0-.09,0-.09,0-.14.49-.38.12-.58.07Z"/><path class="cls-4" d="M46.75,64.74c.14.27.31.56.44.87,0,.06-.12.27-.17.27a2.36,2.36,0,0,1-.57-.18,2.51,2.51,0,0,1-.33-.23Z"/><path class="cls-4" d="M47.55,62.53c-.62,0-.68-.1-.73-.65,0-.32-.08-.63-.12-1l.12,0Z"/><path class="cls-4" d="M55.37,45l.5.63c-.4-.19-.66-.21-.82.15,0,.06-.27,0-.44,0l.45-.4-.47.06a.55.55,0,0,1,.75-.4Z"/><path class="cls-4" d="M55,44l-.43.86-.23,0,.11.59-.07,0-.19-.25-.19.26-.07,0,.16-1,.21.13-.13-.13.69-.57Z"/><path class="cls-4" d="M29.53,36.46c.48.13,1,.23,1.43.39.14,0,.24.23.35.36l-.12.15-1.73-.77Z"/><path class="cls-4" d="M51.89,68.25l-.46.36.16.37-.53-.16c-.14.08-.18.48-.56.24l.34-.13-.29-.27,1.27-.54Z"/><path class="cls-4" d="M56.37,74.09c0,.18,0,.33,0,.34-.53.26-.87.88-1.61.92.16-.33.75-.22.52-.71C55.71,74.68,55.78,74.65,56.37,74.09Z"/><path class="cls-4" d="M38.43,53.05l-.23-1.27.45-.21c.19.51-.12,1-.09,1.47Z"/><path class="cls-4" d="M44.88,65.58c-.32-.2-.31-.4-.12-.63a3.84,3.84,0,0,1,.44-.5c-.32.54.13.85.33,1.23l-.11.08-.57-.53Z"/><path class="cls-4" d="M56.19,44.46c.56-.46.32-.86,0-1.25l.13-.07.51.67.28,0,0,.11-.72.65Z"/><path class="cls-4" d="M19.08,72.62l.26-.37,0,0-.14.88c-.53-.38-.75-.82-.55-1.11Z"/><path class="cls-4" d="M54.62,52.33c-.23-.3-.19-.41.33-.79l.45.43Z"/><path class="cls-4" d="M39.21,17.73c.08-.3.07-.52-.34-.48-.11,0-.22-.08-.32-.22l1.05-.13,0,.16-.34.1.39.33-.47.23Z"/><path class="cls-4" d="M52.62,67.54c0-.2.6-.72.72-.66s.17.16.25.25a2.88,2.88,0,0,1-.39.32c-.07,0-.2,0-.3,0A1.14,1.14,0,0,0,52.62,67.54Z"/><path class="cls-4" d="M56.2,45.75l-1,.71-.12-.16c0-.68.75-.38,1-.66Z"/><path class="cls-4" d="M48,32.93c-.51-.25-.32-.71-.37-1.07,0-.1.25-.23.42-.32C48,32,47.64,32.45,48,32.93Z"/><path class="cls-4" d="M55.37,45h0l-.29-.25.68-.56C56,44.35,55.82,44.72,55.37,45Z"/><path class="cls-4" d="M18.11,71.08l.4.64-.45.77-.12,0c.12-.45.39-.9,0-1.36Z"/><path class="cls-4" d="M19.32,73.68,19.73,75C19.15,74.45,18.89,74.16,19.32,73.68Z"/><path class="cls-4" d="M47,64.5c-.11-.33-.19-.53-.52-.37-.11.05-.3-.09-.46-.14l.07-.4c.27.12.52.22.76.35S47.21,64.17,47,64.5Z"/><path class="cls-4" d="M57.69,48.59c-.25-.06-.57-.06-.6-.15a1.47,1.47,0,0,1,.07-.82Z"/><path class="cls-4" d="M54.08,42.23,54,43h-.15l0-.43c-.12.19-.18.31-.26.41s-.13.12-.2.19l-.09-.1.63-.89Z"/><path class="cls-4" d="M43.77,27.41c-.56-.09-.62-.07-.64.17a3.46,3.46,0,0,0-.56-.23c-.19,0-.4,0-.59-.05A2.56,2.56,0,0,1,43.77,27.41Z"/><path class="cls-4" d="M47,69.82l-1-.2c.1-.4.38-.37,1.06.1Z"/><path class="cls-4" d="M58.19,45.66c-.16-.76-.82-.28-1.3-.57.26,0,.43,0,.6,0a1.84,1.84,0,0,1,.41,0c.15,0,.35,0,.44.14s0,.29,0,.44Z"/><path class="cls-4" d="M39.41,17.83c.56.17.34-.27.39-.51h.12l.27.86C40,17.87,39.49,18.38,39.41,17.83Z"/><path class="cls-4" d="M53.05,11.6c.09,0,.17-.08.21-.06a.34.34,0,0,0,.48-.1s.21,0,.32,0c-.05.09-.08.22-.16.26C53.62,11.82,53.32,12,53.05,11.6Z"/><path class="cls-4" d="M61.84,28l.16-.59.42.1.06.45Z"/><path class="cls-4" d="M53.35,21.48c.2-.46.65-.44,1-.53,0,0,.09.08.13.12s-.11.16-.18.18C54,21.34,53.68,21.41,53.35,21.48Z"/><path class="cls-4" d="M62.88,37.46l0,.49c-.33,0-.6-.51-.92,0,0-.32,0-.32.33-.4Z"/><path class="cls-4" d="M52,74.68l.52-.47-.42-.36.06-.1.76.46-.85.55Z"/><path class="cls-4" d="M53.89,73.64l.17.1.35.24A1.7,1.7,0,0,0,54,74c-.08,0-.13.12-.21.18l-.25.18-.11-.11Z"/><path class="cls-4" d="M48.88,65.3a4.74,4.74,0,0,1-.21-.65c0-.07.1-.18.18-.24s.19,0,.2.09A.74.74,0,0,1,48.88,65.3Z"/><path class="cls-4" d="M47.45,9.88c-.25,0-.5,0-.75,0,0,0-.09-.09-.09-.14s.07-.13.11-.13c.24,0,.49,0,.73.05Z"/><path class="cls-4" d="M52.72,20.22c.51.27.53.34.18.72C52.8,20.71,52.35,20.61,52.72,20.22Z"/><path class="cls-4" d="M50.26,76.05a3.72,3.72,0,0,0,.46-.38,5.19,5.19,0,0,0,.4-.56c.11.36-.12.55-.27.72S50.58,76.23,50.26,76.05Z"/><path class="cls-4" d="M37.47,24.45l-.9-.41C37.11,23.78,37.43,23.94,37.47,24.45Z"/><path class="cls-4" d="M55.21,47.16l.64-.18a2.14,2.14,0,0,1-.22.52c-.06.08-.22.07-.34.1a.53.53,0,0,0,0-.24C55.32,47.28,55.25,47.22,55.21,47.16Z"/><path class="cls-4" d="M39.22,53.52l-.38-.11c0,.11.08.19.08.17l-.28.41-.34-.33C38.94,53.2,38.94,53.2,39.22,53.52Z"/><path class="cls-4" d="M55.74,43l-.67.8c0-.12-.08-.29,0-.38C55.2,43.16,55.38,42.88,55.74,43Z"/><path class="cls-4" d="M54.06,49.34l-.34-.19-.38.28.07-.65.74.42Z"/><path class="cls-4" d="M49.09,9.52l-.65.41c0-.06-.09-.15-.07-.18a2.38,2.38,0,0,1,.43-.41c.05,0,.18,0,.27.05Z"/><path class="cls-4" d="M39.26,20l-.47.61-.12-.08s0-.07.07-.09l.18-.11-.32,0,.23-.39Z"/><path class="cls-4" d="M45.63,19.74l-.57.33-.18-.44.7,0Z"/><path class="cls-4" d="M50.82,66.85l.75-.09C51.55,67.17,51.36,67.21,50.82,66.85Z"/><path class="cls-4" d="M45.57,64.32c.45-.21.79-.07.87.36Z"/><path class="cls-4" d="M50.75,78.39l.76-.63.08.12C51.34,78.07,51.29,78.55,50.75,78.39Z"/><path class="cls-4" d="M52.67,77.79l-.36-.09-.08.3L52,77.8c.09-.09.16-.22.27-.27S52.56,77.49,52.67,77.79Z"/><path class="cls-4" d="M15.15,74.8l.16.71c-.37,0-.43-.17-.3-.66Z"/><path class="cls-4" d="M56.27,58.13,56,58,56,57.29C56.16,57.31,56.16,57.31,56.27,58.13Z"/><path class="cls-4" d="M54.46,43.46l-.11-.27.09-.08a1.14,1.14,0,0,1,.26.28.34.34,0,0,1,0,.27,1.75,1.75,0,0,1-.4,0l0-.12Z"/><path class="cls-4" d="M53.27,50.42l-.2-.33a5.26,5.26,0,0,1,.47-.24c.05,0,.13,0,.19,0a1,1,0,0,1-.09.18Z"/><path class="cls-4" d="M63.94,30.59c.17.47.1.65-.39.85Z"/><path class="cls-4" d="M39.91,26.64h0l1,.43-.06.13-1-.44S39.89,26.69,39.91,26.64Z"/><path class="cls-4" d="M61.7,26.08l.21.78C61.49,26.76,61.42,26.53,61.7,26.08Z"/><path class="cls-4" d="M13.43,73.93l-.16-.69c.13.06.29.08.32.16S13.8,73.84,13.43,73.93Z"/><path class="cls-4" d="M39.2,17.72a.8.8,0,0,1-.19.13l-.38.13-.11-.52.69.27Z"/><path class="cls-4" d="M47.33,63.34l.37.29-.22.5-.29-.71Z"/><path class="cls-4" d="M61.14,21.31s0,.06-.07.05-.17-.07-.2-.13a2.18,2.18,0,0,1-.17-.51s0-.12.06-.12.15,0,.16,0C61,20.85,61.06,21.06,61.14,21.31Z"/><path class="cls-4" d="M31.76,40.25l-.15.49L32,41l-.79-.08c.31-.17.2-.61.6-.66Z"/><path class="cls-4" d="M57.06,19.71l.38.76-.18.09-.35-.77Z"/><path class="cls-4" d="M54.34,46.87c-.05-.15-.13-.26-.1-.31a.62.62,0,0,1,.27-.26c.05,0,.16.07.24.12Z"/><path class="cls-4" d="M49.46,21.49l-.75.36-.08-.16.73-.38Z"/><path class="cls-4" d="M62.37,25.28l-.63-.69C62.08,24.5,62.28,24.69,62.37,25.28Z"/><path class="cls-4" d="M63.82,31.66l-.26.55-.19-.08.22-.57Z"/><path class="cls-4" d="M57.9,70.63l.67-.35C58.46,70.76,58.34,70.82,57.9,70.63Z"/><path class="cls-4" d="M14.67,61.26l-.67.81-.11-.1.66-.79Z"/><path class="cls-4" d="M61.27,22.39a1.68,1.68,0,0,1-.24.28.51.51,0,0,1-.28.08s-.07-.1,0-.12a.6.6,0,0,1,.18-.23,1.92,1.92,0,0,1,.32-.09Z"/><path class="cls-4" d="M50.16,69.07a.57.57,0,0,1-.87-.21Z"/><path class="cls-4" d="M51.26,63.17v.76c-.06,0-.2-.09-.21-.15a4.42,4.42,0,0,1,0-.63Z"/><path class="cls-4" d="M49.47,78.49l.59-.38.09.13-.55.43Z"/><path class="cls-4" d="M55.79,43.44c.15.44-.21.49-.4.68l-.08-.06Z"/><path class="cls-4" d="M55.62,47.84l.31.56C55.45,48.5,55.44,48.49,55.62,47.84Z"/><path class="cls-4" d="M55.52,53a1.32,1.32,0,0,1,.17.48c0,.07-.25.14-.38.2l-.05-.12.29-.14L55.4,53Z"/><path class="cls-4" d="M54.24,42.17a2.09,2.09,0,0,1,.43-.25s.14.19.21.29l-.57,0Z"/><path class="cls-4" d="M53.68,47.37c-.06-.13-.13-.22-.11-.25a3.6,3.6,0,0,1,.28-.4c0,.05.14.12.13.15A5.45,5.45,0,0,1,53.68,47.37Z"/><path class="cls-4" d="M53.53,46.42c-.1.5-.17.56-.5.4Z"/><path class="cls-4" d="M18.64,75l-.46-.57.12-.1.49.55Z"/><path class="cls-4" d="M55.22,49.46l.32-.57C55.74,49.14,55.7,49.28,55.22,49.46Z"/><path class="cls-4" d="M54,50c.25-.24.33-.23.79.2Z"/><path class="cls-4" d="M39.58,20.19l.59.34C39.53,20.6,39.5,20.58,39.58,20.19Z"/><path class="cls-4" d="M61,44.79l-.44-.6.11-.08.49.56Z"/><path class="cls-4" d="M11.86,72.64a3.2,3.2,0,0,1,.33.42s0,.14-.11.28l-.32-.62Z"/><path class="cls-4" d="M33.78,26.74l.94.27A.77.77,0,0,1,33.78,26.74Z"/><path class="cls-4" d="M13.42,71.81l-.06.63h-.09L13.06,72Z"/><path class="cls-4" d="M50.86,40.67l-.61-.08,0-.17.6.1Z"/><path class="cls-4" d="M50.9,80.47l.14-.34.21.11-.18.31Z"/><path class="cls-4" d="M55.58,41.47l-.46.44C55.06,41.58,55.18,41.44,55.58,41.47Z"/><path class="cls-4" d="M21.68,78.24l.17-.49a1.16,1.16,0,0,1,.19.09c-.06.16-.13.32-.2.47Z"/><path class="cls-4" d="M43.26,83.87l.71-.43.11.18-.71.43Z"/><path class="cls-4" d="M43.45,81.5l.14-.34.51.22-.58.23Z"/><path class="cls-4" d="M42.76,73.2l.37.64-.06.08a4.18,4.18,0,0,1-.44-.4S42.69,73.37,42.76,73.2Z"/><path class="cls-4" d="M31,77.84c.12-.47.34-.49.86,0Z"/><path class="cls-4" d="M35.79,83.07c.08-.22.58-.44.76-.32a.23.23,0,0,1,0,.22c-.05.08-.16.12-.25.18l.2.4-.76-.49Z"/><path d="M36.5,46.1l-.12.15c-.23-.11,0-.67-.41-.54a2.91,2.91,0,0,1,.46-.75,2.62,2.62,0,0,1,.8-.41l0-.39.08.1.83-.39c0,.27.12.31.23.14a1.84,1.84,0,0,0,.16-.31l.83.12,0,.12.4-.45.84.67c.05,0,.1.09.13.08.53-.13.9.28,1.36.38a.7.7,0,0,1,.38.3.77.77,0,0,0,1.34.09c.11-.14.09-.38.13-.58l.28.26-.09-.2.12,0c.42-.09.83-.23,1.25-.28.59-.06,1.21,0,1.8-.11s.88.43,1.25.76a1.86,1.86,0,0,0,.62.28l-.09.11.69,1.45-.47-.08c.16.34.19.61-.2.59l-.29.68-.51-.25v-.12l-1.67,1.05,0-.38A4.72,4.72,0,0,0,46,48a2.53,2.53,0,0,0-.62.14l.06.22a1,1,0,0,0-.25,1.23,3,3,0,0,1,.12.43l-.16.06c-.11-.22-.23-.43-.32-.65s-.23-.67-.65-.76c-.09,0-.18-.17-.21-.28-.24-.83-.47-1.66-.72-2.6-.09.13-.21.24-.2.32a4.58,4.58,0,0,1-.28,2.71c-.1.24-.19.48-.28.71l-.93,0c0-.32,0-.6.06-.88s-.17-.35-.4-.25a1,1,0,0,1-.42.07c-.29,0-.63-.15-.85,0a1.38,1.38,0,0,1-.82.09c-.21,0-.45-.05-.34.4a3.63,3.63,0,0,0-.65-.42,1.42,1.42,0,0,0-.5,0l-.37-1s0-.12-.08-.13c-.51-.18-.46-.67-.58-1.06a1.66,1.66,0,0,0-.13-.27,4.14,4.14,0,0,1,.5.3c.21.19.27.59.69.5,0,0,0,0,.06,0l-.12.1,1,.44a1.2,1.2,0,0,0,.27,0,2.05,2.05,0,0,1,.56.09c.22.09.42.23.63.34l.1-.16a2,2,0,0,0-.37-.27c-.29-.13-.62-.2-.9-.35-.68-.38-1.35-.8-2-1.21C36.64,45.77,36.5,45.77,36.5,46.1Zm2.71,2,0,.16.73.1,0-.19Z"/><path d="M43.22,40.72c.05.44.85.67.22,1.22l.29.23-.4.17.63.91a7,7,0,0,1-1,.57.6.6,0,0,1-.55-.13,9.21,9.21,0,0,1-.62-1.26s.08-.12.09-.19.06-.24,0-.31a.89.89,0,0,1-.1-.89c0-.12-.06-.28-.1-.43h-.12l-.36.57a.84.84,0,0,1-.83-.66c0-.08,0-.21.06-.31h.11c0,.08,0,.16,0,.24s.18.34.38.2a2.69,2.69,0,0,0,.61-.55c.24-.31.29-.34.63-.09l-.12.1a2.29,2.29,0,0,0-.13.2l1.09.14-.33.35.07.09Z"/><path d="M34.11,39.92a1.44,1.44,0,0,1-.09-.4,2.85,2.85,0,0,1,.91-1.47c.44-.52.87-1.06,1.3-1.59l.19-.11a2.19,2.19,0,0,1-.18.46c-.24.34-.51.65-.75,1a5.77,5.77,0,0,0-.47.74c-.2.38-.23.9-.8,1a1.53,1.53,0,0,0,0,.34Z"/><path d="M37.84,40.12c.33-.29.66-.59,1-.85.06-.05.32,0,.36.11a.54.54,0,0,1,0,.43c-.17.26-.38.48-.54.69l-.81-.39Z"/><path d="M36.25,41.14l0-.2-.11.07-.16.27-.42-.42c.76-.52,1.2-.59,1.43-.25Z"/><path d="M56.54,39.72h.37l-1,1-.05-.05a1.07,1.07,0,0,0,.15-.22c.14-.35.27-.71.41-1.06a2.68,2.68,0,0,1,.18-.33c.09.07.25.13.25.2s-.1.23-.16.34S56.61,39.64,56.54,39.72Z"/><path d="M39.26,54.29c.08-.14.16-.29.25-.43s.15-.19.27-.35l.38.41c-.39.31-.39.33,0,.6l-.67.07,0-.1-.32-.21Z"/><path d="M41.78,51.39c-.11-.13-.28-.23-.31-.37-.21-.94-.19-1.06.09-1.29Z"/><path d="M46.58,39.58l.92,1.08.09-.07-.08.48c-.6-.33-.59-1-1-1.41Z"/><path d="M35,42.33c.64-.14.64-.14.81.19-.43-.18-.67-.06-.71.39,0,0-.11.07-.17.11s-.1-.15-.09-.22A2.9,2.9,0,0,1,35,42.33Z"/><path d="M47,34.89c.24.07.49.12.73.21.5.19,1,.4,1.49.6l-.05.12L47,34.88Z"/><path d="M42.71,36.35l.07.37.27-.13.06.08-.35.28.05.24c-.45-.21-.45-.33-.09-.85Z"/><path d="M32.88,35l-1.45.37,0-.11,1.44-.41Z"/><path d="M44.87,40.53l1.19.11v.15l-1.19-.12Z"/><path d="M37.83,40.11l.25.24-.89.15c.09-.42.37-.41.65-.38Z"/><path d="M54.51,40.78l.71-.79.11.1-.69.8Z"/><path d="M45.86,39.21l-.73-1.05.1-.07.74,1Z"/><path d="M54.79,35.43,54.45,35l.07-.09.34.19.22-.24.09.07Z"/><path d="M42.72,36.34c-.4-.13-.41-.21-.1-.64l.32.44-.26,0,0,.19Z"/><path d="M48.88,34.81l.69.17v.07h-1V35Z"/><path d="M56.91,35l-.34-.63,0-.09a1.37,1.37,0,0,1,.31.27,1.56,1.56,0,0,1,.12.4Z"/><path d="M54.71,41.35l-.84.19,0-.1.81-.27Z"/><path d="M32.1,40.38l.45-.42C32.54,40.52,32.51,40.54,32.1,40.38Z"/><path d="M31.53,38c-.05.15.14.47-.34.39l.2-.47Z"/><path d="M51,22.67l-1.42.48,0-.49c.58.18.74-.32,1.07-.75,0,.4-.07.71.31.77Z"/><path d="M55.25,22.22l.44-.12c.07.35,0,.44-.8.74l.57-.51-.23,0Z"/><path d="M38.54,25.7l-1-.3,0-.12,1.05.27Z"/><path d="M32,26.37,31.83,26l.74.13v.09l-.54.11Z"/><path d="M44,16.2l-.27.54c-.29-.18-.33-.33-.09-.48,0-.05-.12-.16-.11-.17l.37-.27-.13-.28,1,.09.28,1L44,17l.1-.73Z"/><path d="M38.32,14.82l-.12.41L37.86,15c-.22.21-.43.16-.64,0a.31.31,0,0,0-.21-.07c-.35,0-.7.06-1,.05-.13,0-.24-.12-.34-.18a1.57,1.57,0,0,1,.3-.37c.11-.07.31-.14.38-.08a5.38,5.38,0,0,0,1.69.46Z"/><path d="M35.82,12.07,36.7,12l-.09.43a4.47,4.47,0,0,1-.64.14.31.31,0,0,1-.22-.16A1.14,1.14,0,0,1,35.82,12.07Z"/><path d="M39.59,15c-.16.41-.32.45-.57.24a4.34,4.34,0,0,0-.49-.35l0-.11Z"/><path d="M42.83,19.19l-.22-.3a1.29,1.29,0,0,0,.51-.1c.12-.08.17-.27.29-.39C43.52,18.9,43.11,19,42.83,19.19Z"/><path d="M49.33,12.46a.4.4,0,0,1,.6.09s0,.13,0,.2l-.62-.12Z"/><path d="M44.91,11h-1A.71.71,0,0,1,44.91,11Z"/><path d="M43.38,18l-.46.51-.15-.13.45-.52Z"/><path d="M50.48,13c-.11-.14-.2-.22-.21-.31s.13-.15.2-.15.22.1.21.14A1.28,1.28,0,0,1,50.48,13Z"/><path d="M42.45,14.44l.8-.1,0,.11A.61.61,0,0,1,42.45,14.44Z"/><path d="M38,12.72c.07.08.17.18.16.19s-.14.18-.23.2-.14-.1-.21-.15Z"/><path d="M50.06,63.44l.55.66-.15.12L50,63.53Z"/><path class="cls-4" d="M36.5,46.1c0-.33.14-.33.39-.18.67.41,1.34.83,2,1.21.28.15.61.22.9.35a2,2,0,0,1,.37.27l-.1.16c-.21-.11-.41-.25-.63-.34a2.05,2.05,0,0,0-.56-.09,1.2,1.2,0,0,1-.27,0l-1-.44.12-.1s0,0-.06,0c-.42.09-.48-.31-.69-.5a4.14,4.14,0,0,0-.5-.3Z"/><path class="cls-4" d="M39.21,48.06l.73.07,0,.19-.73-.1Z"/></g></g></svg>